#N canvas 115 101 962 554 10;
#X obj 110 229 color;
#X obj 110 177 gemhead 50;
#X obj 111 421 s pixs;
#X floatatom 152 339 5 0 0 0 - - -;
#X obj 120 102 cnv 15 60 15 empty empty asterisco 0 8 0 10 -228856
-66577 0;
#X obj 59 185 tgl 15 0 empty empty empty 17 7 0 10 -262144 -1 -1 1
1;
#X obj 284 63 inlet;
#X obj 464 43 inlet;
#X obj 102 102 tgl 15 0 empty empty empty 17 7 0 10 -262144 -1 -1 1
1;
#X obj 111 395 rectangle 2 4;
#X obj 334 267 color;
#X obj 334 184 gemhead 50;
#X obj 335 428 s pixs;
#X floatatom 451 314 5 0 0 0 - - -;
#X obj 335 402 rectangle 2 4;
#X obj 338 143 tgl 15 0 empty empty empty 17 7 0 10 -262144 -1 -1 1
1;
#X obj 333 237 rotateXYZ 0 0 90;
#X obj 211 41 loadbang;
#X msg 210 62 0;
#X obj 110 201 translateXYZ 0 0 -3.979;
#X obj 334 208 translateXYZ 0 0 -3.979;
#X obj 526 263 color;
#X obj 526 180 gemhead 50;
#X obj 527 424 s pixs;
#X obj 527 398 rectangle 2 4;
#X obj 530 139 tgl 15 0 empty empty empty 17 7 0 10 -262144 -1 -1 1
1;
#X obj 526 204 translateXYZ 0 0 -3.979;
#X obj 722 268 color;
#X obj 722 185 gemhead 50;
#X obj 723 429 s pixs;
#X floatatom 764 347 5 0 0 0 - - -;
#X obj 723 403 rectangle 2 4;
#X obj 726 144 tgl 15 0 empty empty empty 17 7 0 10 -262144 -1 -1 1
1;
#X obj 762 317 expr $f1/5;
#X obj 722 209 translateXYZ 0 0 -3.979;
#X obj 525 233 rotateXYZ 0 0 45;
#X obj 721 238 rotateXYZ 0 0 -45;
#X obj 150 309 expr $f1/60;
#X obj 449 284 expr $f1/8;
#X connect 0 0 9 0;
#X connect 1 0 19 0;
#X connect 3 0 9 1;
#X connect 3 0 14 1;
#X connect 3 0 24 1;
#X connect 3 0 31 1;
#X connect 5 0 1 0;
#X connect 6 0 37 0;
#X connect 6 0 38 0;
#X connect 7 0 0 1;
#X connect 7 0 10 1;
#X connect 7 0 21 1;
#X connect 7 0 27 1;
#X connect 8 0 5 0;
#X connect 8 0 15 0;
#X connect 8 0 25 0;
#X connect 8 0 32 0;
#X connect 9 0 2 0;
#X connect 10 0 14 0;
#X connect 11 0 20 0;
#X connect 13 0 14 2;
#X connect 13 0 9 2;
#X connect 13 0 24 2;
#X connect 13 0 31 2;
#X connect 14 0 12 0;
#X connect 15 0 11 0;
#X connect 16 0 10 0;
#X connect 17 0 18 0;
#X connect 18 0 8 0;
#X connect 19 0 0 0;
#X connect 20 0 16 0;
#X connect 21 0 24 0;
#X connect 22 0 26 0;
#X connect 24 0 23 0;
#X connect 25 0 22 0;
#X connect 26 0 35 0;
#X connect 27 0 31 0;
#X connect 28 0 34 0;
#X connect 30 0 31 2;
#X connect 31 0 29 0;
#X connect 32 0 28 0;
#X connect 33 0 30 0;
#X connect 34 0 36 0;
#X connect 35 0 21 0;
#X connect 36 0 27 0;
#X connect 37 0 3 0;
#X connect 38 0 13 0;
#X coords 0 -1 1 1 85 20 2 100 100;
