#N canvas 586 151 671 586 10;
#X obj 102 103 tgl 15 0 empty empty empty 17 7 0 10 -262144 -1 -1 1
1;
#X obj 120 102 cnv 15 40 15 empty empty chapado 0 8 0 10 -228856 -66577
0;
#X obj 191 35 inlet;
#X obj 108 366 s pixs;
#X obj 125 142 r gf;
#X obj 32 77 loadbang;
#X msg 32 101 0;
#X obj 104 334 rectangle 10.666 8;
#X obj 168 48 tgl 15 0 empty empty empty 17 7 0 10 -262144 -1 -1 0
1;
#X obj 106 122 hsl 40 15 -1 100 0 0 empty empty empty -2 -8 0 10 -262144
-1 -1 0 1;
#X floatatom 486 -30 5 0 0 0 - - -;
#X obj 315 99 t b f;
#X floatatom 249 162 5 0 0 0 - - -;
#X obj 231 81 > 0;
#X msg 162 255 0;
#X obj 289 30 inlet;
#X obj 306 -34 sel 0 1;
#X msg 333 -4 0;
#X obj 466 23 f;
#X floatatom 152 122 5 0 0 0 - - -;
#X obj 396 -18 t b;
#X floatatom 370 150 5 0 0 0 - - -;
#X obj 371 41 f;
#X obj 162 102 tgl 15 0 empty empty empty 17 7 0 10 -262144 -1 -1 0
1;
#X obj 49 170 spigot;
#X obj 332 160 t b;
#X obj 103 201 color 1 0 0;
#X obj 103 281 translateXYZ 0 0 -4;
#X obj 103 177 gemhead 49;
#X floatatom 198 81 5 0 0 0 - - -;
#X connect 0 0 28 0;
#X connect 2 0 13 0;
#X connect 2 0 29 0;
#X connect 4 0 26 0;
#X connect 5 0 6 0;
#X connect 6 0 0 0;
#X connect 6 0 8 0;
#X connect 7 0 3 0;
#X connect 8 0 16 0;
#X connect 9 0 10 0;
#X connect 10 0 18 0;
#X connect 11 0 13 0;
#X connect 11 1 13 1;
#X connect 11 1 21 0;
#X connect 13 0 12 0;
#X connect 13 0 23 0;
#X connect 14 0 27 1;
#X connect 15 0 25 0;
#X connect 15 0 26 1;
#X connect 16 0 17 0;
#X connect 16 1 20 0;
#X connect 17 0 22 0;
#X connect 18 0 11 0;
#X connect 18 0 19 0;
#X connect 20 0 18 0;
#X connect 22 0 11 0;
#X connect 23 0 24 1;
#X connect 24 0 7 0;
#X connect 26 0 27 0;
#X connect 27 0 24 0;
#X connect 28 0 26 0;
#X coords 0 -1 1 1 85 40 2 100 100;
