#N canvas 0 22 940 590 10;
#X obj 150 405 / 127;
#X obj 253 427 +~;
#X obj 253 483 delwrite~ \$0-del1 1000;
#X obj 389 448 delwrite~ \$0-del2 1000;
#X obj 499 478 delwrite~ \$0-del3 1000;
#X obj 634 451 delwrite~ \$0-del4 1000;
#X obj 770 480 delwrite~ \$0-del5 1000;
#N canvas 605 151 460 413 delayline1 0;
#X obj 259 119 tgl 15 0 empty empty empty 17 7 0 10 -262144 -1 -1 1
1;
#X obj 259 141 metro 400;
#X obj 259 165 random 5;
#X obj 260 189 sel 0;
#X obj 259 99 loadbang;
#X obj 260 214 random 5;
#X obj 152 169 line~;
#X obj 152 145 pack 0 100;
#X obj 131 195 *~;
#X obj 131 219 clip~ -1 1;
#X obj 152 121 / 127;
#X obj 152 97 r \$0-feedback;
#X obj 131 282 outlet~;
#X obj 163 307 outlet~;
#X obj 195 281 outlet~;
#X obj 227 306 outlet~;
#X obj 261 331 outlet~;
#X obj 131 76 delread~ \$0-del1 200;
#X obj 131 254 demultiplexor5~;
#X connect 0 0 1 0;
#X connect 1 0 2 0;
#X connect 2 0 3 0;
#X connect 3 0 5 0;
#X connect 4 0 0 0;
#X connect 5 0 18 1;
#X connect 6 0 8 1;
#X connect 7 0 6 0;
#X connect 8 0 9 0;
#X connect 9 0 18 0;
#X connect 10 0 7 0;
#X connect 11 0 10 0;
#X connect 17 0 8 0;
#X connect 18 0 12 0;
#X connect 18 1 13 0;
#X connect 18 2 14 0;
#X connect 18 3 15 0;
#X connect 18 4 16 0;
#X restore 448 224 pd delayline1;
#N canvas 605 151 460 413 delayline2 0;
#X obj 259 119 tgl 15 0 empty empty empty 17 7 0 10 -262144 -1 -1 1
1;
#X obj 259 141 metro 400;
#X obj 259 165 random 5;
#X obj 260 189 sel 0;
#X obj 259 99 loadbang;
#X obj 260 214 random 5;
#X obj 152 169 line~;
#X obj 152 145 pack 0 100;
#X obj 131 195 *~;
#X obj 131 219 clip~ -1 1;
#X obj 152 121 / 127;
#X obj 152 97 r \$0-feedback;
#X obj 131 282 outlet~;
#X obj 163 307 outlet~;
#X obj 195 281 outlet~;
#X obj 227 306 outlet~;
#X obj 261 331 outlet~;
#X obj 131 76 delread~ \$0-del2 123;
#X obj 131 254 demultiplexor5~;
#X connect 0 0 1 0;
#X connect 1 0 2 0;
#X connect 2 0 3 0;
#X connect 3 0 5 0;
#X connect 4 0 0 0;
#X connect 5 0 18 1;
#X connect 6 0 8 1;
#X connect 7 0 6 0;
#X connect 8 0 9 0;
#X connect 9 0 18 0;
#X connect 10 0 7 0;
#X connect 11 0 10 0;
#X connect 17 0 8 0;
#X connect 18 0 12 0;
#X connect 18 1 13 0;
#X connect 18 2 14 0;
#X connect 18 3 15 0;
#X connect 18 4 16 0;
#X restore 553 226 pd delayline2;
#N canvas 605 151 460 413 delayline3 0;
#X obj 259 119 tgl 15 0 empty empty empty 17 7 0 10 -262144 -1 -1 1
1;
#X obj 259 141 metro 400;
#X obj 259 165 random 5;
#X obj 260 189 sel 0;
#X obj 259 99 loadbang;
#X obj 260 214 random 5;
#X obj 152 169 line~;
#X obj 152 145 pack 0 100;
#X obj 131 195 *~;
#X obj 131 219 clip~ -1 1;
#X obj 152 121 / 127;
#X obj 152 97 r \$0-feedback;
#X obj 131 282 outlet~;
#X obj 163 307 outlet~;
#X obj 195 281 outlet~;
#X obj 227 306 outlet~;
#X obj 261 331 outlet~;
#X obj 131 76 delread~ \$0-del3 76;
#X obj 131 254 demultiplexor5~;
#X connect 0 0 1 0;
#X connect 1 0 2 0;
#X connect 2 0 3 0;
#X connect 3 0 5 0;
#X connect 4 0 0 0;
#X connect 5 0 18 1;
#X connect 6 0 8 1;
#X connect 7 0 6 0;
#X connect 8 0 9 0;
#X connect 9 0 18 0;
#X connect 10 0 7 0;
#X connect 11 0 10 0;
#X connect 17 0 8 0;
#X connect 18 0 12 0;
#X connect 18 1 13 0;
#X connect 18 2 14 0;
#X connect 18 3 15 0;
#X connect 18 4 16 0;
#X restore 647 227 pd delayline3;
#N canvas 605 151 460 413 delayline4 0;
#X obj 259 119 tgl 15 0 empty empty empty 17 7 0 10 -262144 -1 -1 1
1;
#X obj 259 141 metro 400;
#X obj 259 165 random 5;
#X obj 260 189 sel 0;
#X obj 259 99 loadbang;
#X obj 260 214 random 5;
#X obj 152 169 line~;
#X obj 152 145 pack 0 100;
#X obj 131 195 *~;
#X obj 131 219 clip~ -1 1;
#X obj 152 121 / 127;
#X obj 152 97 r \$0-feedback;
#X obj 131 282 outlet~;
#X obj 163 307 outlet~;
#X obj 195 281 outlet~;
#X obj 227 306 outlet~;
#X obj 261 331 outlet~;
#X obj 131 76 delread~ \$0-del4 233;
#X obj 131 254 demultiplexor5~;
#X connect 0 0 1 0;
#X connect 1 0 2 0;
#X connect 2 0 3 0;
#X connect 3 0 5 0;
#X connect 4 0 0 0;
#X connect 5 0 18 1;
#X connect 6 0 8 1;
#X connect 7 0 6 0;
#X connect 8 0 9 0;
#X connect 9 0 18 0;
#X connect 10 0 7 0;
#X connect 11 0 10 0;
#X connect 17 0 8 0;
#X connect 18 0 12 0;
#X connect 18 1 13 0;
#X connect 18 2 14 0;
#X connect 18 3 15 0;
#X connect 18 4 16 0;
#X restore 752 229 pd delayline4;
#N canvas 605 151 460 413 delayline5 0;
#X obj 259 119 tgl 15 0 empty empty empty 17 7 0 10 -262144 -1 -1 1
1;
#X obj 259 141 metro 400;
#X obj 259 165 random 5;
#X obj 260 189 sel 0;
#X obj 259 99 loadbang;
#X obj 260 214 random 5;
#X obj 152 169 line~;
#X obj 152 145 pack 0 100;
#X obj 131 195 *~;
#X obj 131 219 clip~ -1 1;
#X obj 152 121 / 127;
#X obj 152 97 r \$0-feedback;
#X obj 131 282 outlet~;
#X obj 163 307 outlet~;
#X obj 195 281 outlet~;
#X obj 227 306 outlet~;
#X obj 261 331 outlet~;
#X obj 131 76 delread~ \$0-del5 333;
#X obj 131 254 demultiplexor5~;
#X connect 0 0 1 0;
#X connect 1 0 2 0;
#X connect 2 0 3 0;
#X connect 3 0 5 0;
#X connect 4 0 0 0;
#X connect 5 0 18 1;
#X connect 6 0 8 1;
#X connect 7 0 6 0;
#X connect 8 0 9 0;
#X connect 9 0 18 0;
#X connect 10 0 7 0;
#X connect 11 0 10 0;
#X connect 17 0 8 0;
#X connect 18 0 12 0;
#X connect 18 1 13 0;
#X connect 18 2 14 0;
#X connect 18 3 15 0;
#X connect 18 4 16 0;
#X restore 842 229 pd delayline5;
#X obj 107 142 hsl 128 15 0 127 0 0 empty empty empty -2 -8 0 10 -262144
-1 -1 0 1;
#X obj 107 104 hsl 128 15 0 127 0 0 empty empty empty -2 -8 0 10 -262144
-1 -1 0 1;
#X text 241 142 volume;
#X text 239 104 feedback;
#X obj 107 69 s \$0-feedback;
#X obj 253 348 inlet~;
#X obj 107 123 hsl 128 15 0 127 0 0 empty empty empty -2 -8 0 10 -262144
-1 -1 0 1;
#X obj 150 434 pow 2;
#X msg 150 463 \$1 10;
#X obj 150 485 line~;
#X obj 173 576 *~;
#X msg 515 106 \$1 10;
#X obj 515 128 line~;
#X obj 500 151 *~;
#X obj 414 42 / 127;
#X obj 483 37 f;
#X obj 515 78 > 0;
#X msg 585 106 \$1 10;
#X obj 585 128 line~;
#X obj 570 151 *~;
#X obj 585 78 > 1;
#X msg 665 106 \$1 10;
#X obj 665 128 line~;
#X obj 650 151 *~;
#X obj 665 78 > 2;
#X msg 765 111 \$1 10;
#X obj 765 133 line~;
#X obj 750 156 *~;
#X obj 765 83 > 3;
#X msg 858 111 \$1 10;
#X obj 858 133 line~;
#X obj 843 156 *~;
#X obj 858 83 > 4;
#X obj 413 64 * 5;
#X obj 250 273 env~ 10000;
#X obj 250 295 dbtorms;
#X obj 250 319 * 127;
#X obj 119 211 hsl 50 15 0 127 0 0 empty empty empty -2 -8 0 10 -262144
-1 -1 0 1;
#X text 139 210 |;
#X text 151 210 |;
#X text 126 210 |;
#X text 179 211 L -OUT- R;
#X obj 279 587 outlet~;
#X text 241 123 densidade;
#X connect 0 0 19 0;
#X connect 1 0 2 0;
#X connect 1 0 22 0;
#X connect 7 0 1 1;
#X connect 7 1 3 0;
#X connect 7 1 25 0;
#X connect 7 2 4 0;
#X connect 7 2 25 0;
#X connect 7 3 5 0;
#X connect 7 4 6 0;
#X connect 8 0 1 1;
#X connect 8 1 3 0;
#X connect 8 1 22 0;
#X connect 8 2 4 0;
#X connect 8 2 31 0;
#X connect 8 3 5 0;
#X connect 8 3 31 0;
#X connect 8 4 6 0;
#X connect 9 0 1 1;
#X connect 9 1 3 0;
#X connect 9 1 35 0;
#X connect 9 2 4 0;
#X connect 9 2 22 0;
#X connect 9 3 5 0;
#X connect 9 3 35 0;
#X connect 9 4 6 0;
#X connect 10 0 1 1;
#X connect 10 1 3 0;
#X connect 10 1 39 0;
#X connect 10 2 4 0;
#X connect 10 3 5 0;
#X connect 10 3 22 0;
#X connect 10 4 6 0;
#X connect 10 4 39 0;
#X connect 11 0 1 1;
#X connect 11 1 3 0;
#X connect 11 1 43 0;
#X connect 11 2 4 0;
#X connect 11 3 5 0;
#X connect 11 3 43 0;
#X connect 11 4 6 0;
#X connect 11 4 22 0;
#X connect 12 0 0 0;
#X connect 13 0 16 0;
#X connect 17 0 1 0;
#X connect 18 0 26 0;
#X connect 19 0 20 0;
#X connect 20 0 21 0;
#X connect 21 0 22 1;
#X connect 22 0 46 0;
#X connect 22 0 54 0;
#X connect 23 0 24 0;
#X connect 24 0 25 1;
#X connect 25 0 22 0;
#X connect 26 0 45 0;
#X connect 27 0 28 0;
#X connect 27 0 32 0;
#X connect 27 0 36 0;
#X connect 27 0 40 0;
#X connect 27 0 44 0;
#X connect 28 0 23 0;
#X connect 29 0 30 0;
#X connect 30 0 31 1;
#X connect 31 0 22 0;
#X connect 32 0 29 0;
#X connect 33 0 34 0;
#X connect 34 0 35 1;
#X connect 35 0 22 0;
#X connect 36 0 33 0;
#X connect 37 0 38 0;
#X connect 38 0 39 1;
#X connect 39 0 22 0;
#X connect 40 0 37 0;
#X connect 41 0 42 0;
#X connect 42 0 43 1;
#X connect 43 0 22 0;
#X connect 44 0 41 0;
#X connect 45 0 27 0;
#X connect 46 0 47 0;
#X connect 47 0 48 0;
#X connect 48 0 49 0;
#X coords 0 -1 1 1 200 60 1 100 100;
