#N canvas 281 171 450 300 10;
#X obj 172 59 inlet;
#X obj 100 59 inlet~;
#X obj 99 204 outlet~;
#X obj 99 175 *~;
#X obj 114 148 line~;
#X msg 114 123 \$1 20;
#X obj 114 98 == 0;
#X obj 169 204 outlet~;
#X obj 169 175 *~;
#X obj 184 148 line~;
#X msg 184 123 \$1 20;
#X obj 239 204 outlet~;
#X obj 239 175 *~;
#X obj 254 148 line~;
#X msg 254 123 \$1 20;
#X obj 309 204 outlet~;
#X obj 309 175 *~;
#X obj 324 148 line~;
#X msg 324 123 \$1 20;
#X obj 369 204 outlet~;
#X obj 369 175 *~;
#X obj 384 148 line~;
#X msg 384 123 \$1 20;
#X obj 184 98 == 1;
#X obj 254 98 == 2;
#X obj 324 98 == 3;
#X obj 384 98 == 4;
#X connect 0 0 6 0;
#X connect 0 0 23 0;
#X connect 0 0 24 0;
#X connect 0 0 25 0;
#X connect 0 0 26 0;
#X connect 1 0 3 0;
#X connect 1 0 8 0;
#X connect 1 0 12 0;
#X connect 1 0 16 0;
#X connect 1 0 20 0;
#X connect 3 0 2 0;
#X connect 4 0 3 1;
#X connect 5 0 4 0;
#X connect 6 0 5 0;
#X connect 8 0 7 0;
#X connect 9 0 8 1;
#X connect 10 0 9 0;
#X connect 12 0 11 0;
#X connect 13 0 12 1;
#X connect 14 0 13 0;
#X connect 16 0 15 0;
#X connect 17 0 16 1;
#X connect 18 0 17 0;
#X connect 20 0 19 0;
#X connect 21 0 20 1;
#X connect 22 0 21 0;
#X connect 23 0 10 0;
#X connect 24 0 14 0;
#X connect 25 0 18 0;
#X connect 26 0 22 0;
