#N canvas 874 177 649 752 10;
#X floatatom 432 211 5 0 0 0 - - -;
#X obj 476 212 + 0.5;
#X obj 114 32 color 1 0 0;
#X obj 312 274 r $a;
#X obj 50 -24 inlet;
#X obj 224 327 s pixs;
#X obj 114 8 gemhead 50;
#X obj 244 274 r lrect_\$0;
#X obj 215 -17 r rect_cor_\$0;
#X obj 76 98 rotateXYZ;
#X obj 393 245 translateXYZ 0 0 0;
#X floatatom 101 67 5 0 0 0 - - -;
#X floatatom 143 65 5 0 0 0 - - -;
#X obj 224 301 rectangle 0.1 1;
#X floatatom 187 68 5 0 0 0 - - -;
#X obj 217 157 separator;
#X obj 445 276 r $a;
#X obj 357 329 s pixs;
#X obj 377 276 r lrect_\$0;
#X obj 357 303 rectangle 0.1 1;
#X obj 357 204 separator;
#X floatatom 272 209 5 0 0 0 - - -;
#X obj 316 210 + 0.5;
#X obj 254 187 inlet;
#X obj 233 243 translateXYZ 0 0 0;
#X connect 0 0 1 0;
#X connect 0 0 10 1;
#X connect 2 0 9 0;
#X connect 3 0 13 2;
#X connect 4 0 6 0;
#X connect 6 0 2 0;
#X connect 7 0 13 1;
#X connect 8 0 2 1;
#X connect 9 0 15 0;
#X connect 9 0 20 0;
#X connect 10 0 19 0;
#X connect 11 0 9 1;
#X connect 12 0 9 2;
#X connect 13 0 5 0;
#X connect 14 0 9 3;
#X connect 15 0 24 0;
#X connect 16 0 19 2;
#X connect 18 0 19 1;
#X connect 19 0 17 0;
#X connect 20 0 10 0;
#X connect 21 0 22 0;
#X connect 21 0 24 1;
#X connect 22 0 0 0;
#X connect 23 0 21 0;
#X connect 24 0 13 0;
