#N canvas 0 22 1015 622 10;
#X obj 120 170 route move_x_y;
#X obj 120 197 unpack f f;
#X obj 100 100 cnv 15 40 40 empty empty empty 20 12 0 14 -33289 -66577
0;
#X obj 110 110 cnv 15 20 20 empty empty empty 20 12 0 14 -260097 -66577
0;
#X obj 100 100 iem_event 40 40 0 0 empty empty;
#X obj 513 522 s volume1;
#X floatatom 585 396 5 0 0 0 - - -;
#X obj 120 236 expr $f1 \; if ($f1 > 8 \, if ($f1 < 11 \, 0.75 \, if
( $f1 < 29 \, 1 \, if ($f1 > 31 \, (40-$f1)*(40-$f1)/100 \, 0.75 )))
\, $f1*$f1/100) \;;
#X obj 119 288 expr $f1 \; if ($f1 > 8 \, if ($f1 < 11 \, 0.75 \, if
( $f1 < 29 \, 1 \, if ($f1 > 31 \, (40-$f1)*(40-$f1)/100 \, 0.75 )))
\, $f1*$f1/100) \;;
#X floatatom 473 313 5 0 0 0 - - -;
#X obj 429 401 expr $f1<$f2;
#X floatatom 599 288 5 0 0 0 - - -;
#X obj 570 270 t b;
#X msg 661 312 0;
#X msg 628 311 1;
#X obj 663 264 t b;
#X obj 601 311 t b;
#X floatatom 732 285 5 0 0 0 - - -;
#X obj 703 267 t b;
#X msg 794 309 0;
#X msg 761 308 1;
#X obj 796 261 t b;
#X obj 734 308 t b;
#X obj 761 365 &&;
#X obj 761 335 t b f;
#X floatatom 761 394 5 0 0 0 - - -;
#X obj 803 396 tgl 15 0 empty empty empty 17 7 0 10 -262144 -1 -1 0
1;
#X obj 666 393 outlet;
#X obj 570 245 moses 2;
#X obj 703 242 moses 2;
#X obj 598 269 moses 38;
#X obj 731 266 moses 38;
#X obj 429 426 sel 0 1;
#X obj 407 467 f;
#X obj 460 469 f;
#X floatatom 431 511 5 0 0 0 - - -;
#X floatatom 75 242 5 0 0 0 - - -;
#X floatatom 80 268 5 0 0 0 - - -;
#X obj 495 369 t b f f;
#X obj 411 359 t b f f;
#X floatatom 500 288 5 0 0 0 - - -;
#X floatatom 475 73 5 0 0 0 - - -;
#X floatatom 515 37 5 0 0 0 - - -;
#X obj 461 107 pack f f;
#X floatatom 471 175 5 0 0 0 - - -;
#X obj 572 40 t b f;
#X obj 463 129 exp $f1 \, $f2 \; if ($f1 < $f2) \;;
#X connect 0 0 1 0;
#X connect 1 0 7 0;
#X connect 1 0 28 0;
#X connect 1 0 36 0;
#X connect 1 1 8 0;
#X connect 1 1 29 0;
#X connect 1 1 37 0;
#X connect 4 0 0 0;
#X connect 7 1 40 0;
#X connect 8 1 9 0;
#X connect 9 0 39 0;
#X connect 10 0 32 0;
#X connect 11 0 16 0;
#X connect 12 0 13 0;
#X connect 13 0 23 0;
#X connect 14 0 23 0;
#X connect 15 0 13 0;
#X connect 16 0 14 0;
#X connect 17 0 22 0;
#X connect 18 0 19 0;
#X connect 19 0 24 0;
#X connect 20 0 24 0;
#X connect 21 0 19 0;
#X connect 22 0 20 0;
#X connect 23 0 25 0;
#X connect 23 0 26 0;
#X connect 23 0 27 0;
#X connect 24 0 23 0;
#X connect 24 1 23 1;
#X connect 28 0 12 0;
#X connect 28 1 30 0;
#X connect 29 0 18 0;
#X connect 29 1 31 0;
#X connect 30 0 11 0;
#X connect 30 1 15 0;
#X connect 31 0 17 0;
#X connect 31 1 21 0;
#X connect 32 0 34 0;
#X connect 32 1 33 0;
#X connect 33 0 35 0;
#X connect 34 0 35 0;
#X connect 35 0 5 0;
#X connect 38 0 10 0;
#X connect 38 1 10 1;
#X connect 38 2 34 1;
#X connect 39 1 10 0;
#X connect 39 2 33 1;
#X connect 40 0 38 0;
#X connect 41 0 43 0;
#X connect 42 0 45 0;
#X connect 43 0 46 0;
#X connect 45 0 43 0;
#X connect 45 1 43 1;
#X connect 46 0 44 0;
#X coords 0 -1 1 1 40 40 1 100 100;
