#N canvas 457 62 796 639 10;
#X obj 372 157 cnv 15 40 60 empty empty empty 20 12 0 14 -75577 -66577
0;
#X floatatom 206 101 5 0 0 0 - - -;
#X floatatom 155 101 5 0 100 2 - - -;
#X obj 75 261 / 100;
#X obj 97 331 line~;
#X obj 97 356 *~;
#X floatatom 256 102 5 0 0 0 - - -;
#X obj 144 283 pack 1 10;
#X obj 74 284 pack 0 100;
#X obj 175 199 sel 1;
#X obj 173 262 bng 15 250 50 0 empty empty empty 17 7 0 10 -262144
-1 -1;
#X text 255 115 decay;
#X text 205 114 attack;
#X text 155 115 level;
#X obj 176 480 outlet~;
#X obj 97 380 *~;
#X obj 31 -24 inlet~;
#X msg 202 228 bang;
#X floatatom 102 102 5 0 0 0 - - -;
#X obj 91 59 float;
#X obj 120 2 + 1;
#X obj 130 30 mod 2;
#X obj 137 102 bng 15 250 50 0 empty empty empty 17 7 0 10 -262144
-1 -1;
#X obj 475 277 outlet;
#X text 636 -9 primeiro modelo experimental para gapper;
#X obj 639 180 outlet;
#X msg 194 36 1;
#X obj 196 58 -;
#X text 641 231 este objeto dá duas saídas \, uma zero e outra 1 clicando
no bang \, o valor das saídas se invertem;
#X obj 833 180 nbx 5 14 -1e+37 1e+37 0 0 empty empty empty 0 -8 0 10
-262144 -1 -1 0 256;
#X obj 85 -23 inlet;
#X connect 1 0 8 1;
#X connect 2 0 3 0;
#X connect 3 0 8 0;
#X connect 4 0 5 0;
#X connect 4 0 5 1;
#X connect 5 0 15 1;
#X connect 6 0 7 1;
#X connect 7 0 4 0;
#X connect 8 0 4 0;
#X connect 9 0 10 0;
#X connect 9 1 17 0;
#X connect 10 0 7 0;
#X connect 15 0 14 0;
#X connect 16 0 15 0;
#X connect 17 0 8 0;
#X connect 18 0 23 0;
#X connect 18 0 27 1;
#X connect 18 0 9 0;
#X connect 19 0 18 0;
#X connect 19 0 20 0;
#X connect 20 0 21 0;
#X connect 21 0 19 1;
#X connect 22 0 26 0;
#X connect 22 0 19 0;
#X connect 26 0 27 0;
#X connect 27 0 25 0;
#X connect 30 0 22 0;
#X coords 0 -1 1 1 200 30 1 100 100;
