#N canvas 127 89 1044 676 10;
#X obj 105 211 color 1 0 0;
#X obj 104 249 rotateXYZ;
#X floatatom 137 216 5 0 0 0 - - -;
#X floatatom 176 217 5 0 0 0 - - -;
#X floatatom 124 121 5 0 0 0 - - -;
#X obj 86 496 s pixs;
#X obj 106 443 r lrect_\$0;
#X obj 86 470 rectangle 0.1 1;
#X obj 104 326 separator;
#X floatatom 141 380 5 0 0 0 - - -;
#X obj 86 413 translateXYZ 0 0 0;
#X obj 248 496 s pixs;
#X obj 268 443 r lrect_\$0;
#X obj 248 470 rectangle 0.1 1;
#X obj 248 328 separator;
#X floatatom 303 380 5 0 0 0 - - -;
#X obj 248 413 translateXYZ 0 0 0;
#X obj 396 490 s pixs;
#X obj 432 431 r lrect_\$0;
#X obj 396 464 rectangle 0.1 1;
#X obj 396 322 separator;
#X floatatom 451 374 5 0 0 0 - - -;
#X obj 396 407 translateXYZ 0 0 0;
#X obj 602 509 s pixs;
#X obj 623 442 r lrect_\$0;
#X obj 602 483 rectangle 0.1 1;
#X obj 603 327 separator;
#X floatatom 658 379 5 0 0 0 - - -;
#X obj 603 412 translateXYZ 0 0 0;
#X obj 755 509 s pixs;
#X obj 775 438 r lrect_\$0;
#X obj 755 483 rectangle 0.1 1;
#X obj 755 323 separator;
#X floatatom 810 375 5 0 0 0 - - -;
#X obj 755 408 translateXYZ 0 0 0;
#X obj 918 510 s pixs;
#X obj 938 457 r lrect_\$0;
#X obj 918 484 rectangle 0.1 1;
#X obj 918 342 separator;
#X floatatom 973 394 5 0 0 0 - - -;
#X obj 918 427 translateXYZ 0 0 0;
#X obj 185 381 + 0.5;
#X obj 1017 395 + 6.5;
#X obj 240 220 s lrect_\$0;
#X floatatom 528 492 5 0 0 0 - - -;
#X floatatom 359 483 5 0 0 0 - - -;
#X obj 500 431 * 2;
#X obj 693 440 * 3;
#X obj 846 437 * 5;
#X obj 356 377 + 0.75;
#X obj 555 379 + 1.25;
#X obj 702 380 + 2;
#X obj 1018 462 * 8;
#X obj 854 376 + 3.25;
#X floatatom 478 245 5 0 0 0 - - -;
#X obj 509 269 * 1;
#X obj 540 269 * 1.5;
#X obj 582 269 * 2.5;
#X obj 624 269 * 4;
#X obj 652 269 * 6.5;
#X obj 479 269 t b;
#X floatatom 286 194 5 0 0 0 - - -;
#X floatatom 434 213 5 0 0 0 - - -;
#X obj 233 139 inlet;
#X obj 353 141 inlet;
#X obj 104 157 gemhead;
#X obj 104 103 tgl 15 0 empty empty empty 17 7 0 10 -262144 -1 -1 1
1;
#X obj 419 145 inlet;
#X obj 202 -2 loadbang;
#X obj 233 167 expr $f1/1000*$f2;
#X msg 209 89 0;
#X obj 353 174 expr $f1/100*$f2;
#X msg 427 13 90;
#X msg 285 -3 0;
#X msg 418 85 90;
#X floatatom 497 146 5 0 0 0 - - -;
#X floatatom 195 156 5 0 0 0 - - -;
#X text 121 103 fibonatti;
#X obj 105 122 bng 15 250 50 0 empty empty empty 17 7 0 10 -262144
-1 -1;
#X obj 601 37 f;
#X obj 635 37 + 1;
#X obj 604 64 mod 2;
#X obj 604 88 sel 0 1;
#X msg 146 51 0;
#X msg 241 88 -7;
#X msg 347 91 0.74;
#X msg 280 88 3.4;
#X msg 313 89 6;
#X msg 450 84 -5.5;
#X msg 489 83 3;
#X msg 522 85 10;
#X msg 556 87 0.58;
#X obj 104 183 translateXYZ 0 0 -1.98;
#X obj 357 208 s $a_0;
#X obj 342 443 r $a_0;
#X obj 174 443 r $a_0;
#X obj 497 464 r $a_0;
#X obj 698 483 r $a_0;
#X obj 852 484 r $a_0;
#X obj 1018 486 r $a_0;
#X connect 0 0 1 0;
#X connect 1 0 8 0;
#X connect 1 0 14 0;
#X connect 1 0 20 0;
#X connect 1 0 26 0;
#X connect 1 0 32 0;
#X connect 1 0 38 0;
#X connect 2 0 1 1;
#X connect 3 0 1 2;
#X connect 4 0 1 3;
#X connect 6 0 7 1;
#X connect 7 0 5 0;
#X connect 8 0 10 0;
#X connect 9 0 10 1;
#X connect 9 0 41 0;
#X connect 10 0 7 0;
#X connect 12 0 13 1;
#X connect 13 0 11 0;
#X connect 14 0 16 0;
#X connect 15 0 16 1;
#X connect 15 0 49 0;
#X connect 16 0 13 0;
#X connect 18 0 46 0;
#X connect 19 0 17 0;
#X connect 20 0 22 0;
#X connect 21 0 22 1;
#X connect 21 0 50 0;
#X connect 22 0 19 0;
#X connect 24 0 47 0;
#X connect 25 0 23 0;
#X connect 26 0 28 0;
#X connect 27 0 28 1;
#X connect 27 0 51 0;
#X connect 28 0 25 0;
#X connect 30 0 48 0;
#X connect 31 0 29 0;
#X connect 32 0 34 0;
#X connect 33 0 34 1;
#X connect 33 0 53 0;
#X connect 34 0 31 0;
#X connect 36 0 52 0;
#X connect 37 0 35 0;
#X connect 38 0 40 0;
#X connect 39 0 40 1;
#X connect 39 0 42 0;
#X connect 40 0 37 0;
#X connect 41 0 15 0;
#X connect 46 0 19 1;
#X connect 47 0 25 1;
#X connect 48 0 31 1;
#X connect 49 0 21 0;
#X connect 50 0 27 0;
#X connect 51 0 33 0;
#X connect 52 0 37 1;
#X connect 53 0 39 0;
#X connect 54 0 55 0;
#X connect 54 0 56 0;
#X connect 54 0 57 0;
#X connect 54 0 58 0;
#X connect 54 0 59 0;
#X connect 54 0 60 0;
#X connect 55 0 41 1;
#X connect 56 0 49 1;
#X connect 57 0 50 1;
#X connect 58 0 51 1;
#X connect 59 0 53 1;
#X connect 60 0 9 0;
#X connect 63 0 69 0;
#X connect 63 0 76 0;
#X connect 64 0 71 0;
#X connect 65 0 92 0;
#X connect 66 0 65 0;
#X connect 67 0 0 1;
#X connect 68 0 85 0;
#X connect 68 0 84 0;
#X connect 68 0 86 0;
#X connect 68 0 70 0;
#X connect 68 0 87 0;
#X connect 68 0 83 0;
#X connect 69 0 43 0;
#X connect 69 0 61 0;
#X connect 70 0 4 0;
#X connect 71 0 62 0;
#X connect 71 0 93 0;
#X connect 72 0 74 0;
#X connect 72 0 88 0;
#X connect 72 0 89 0;
#X connect 72 0 90 0;
#X connect 72 0 91 0;
#X connect 73 0 70 0;
#X connect 73 0 84 0;
#X connect 73 0 86 0;
#X connect 73 0 87 0;
#X connect 73 0 85 0;
#X connect 74 0 4 0;
#X connect 75 0 54 0;
#X connect 78 0 79 0;
#X connect 79 0 80 0;
#X connect 79 0 81 0;
#X connect 80 0 79 1;
#X connect 81 0 82 0;
#X connect 82 0 73 0;
#X connect 82 1 72 0;
#X connect 83 0 66 0;
#X connect 84 0 9 0;
#X connect 85 0 54 0;
#X connect 86 0 69 1;
#X connect 87 0 71 1;
#X connect 88 0 9 0;
#X connect 89 0 69 1;
#X connect 90 0 71 1;
#X connect 91 0 54 0;
#X connect 92 0 0 0;
#X connect 94 0 13 2;
#X connect 95 0 7 2;
#X connect 96 0 19 2;
#X connect 97 0 25 2;
#X connect 98 0 31 2;
#X connect 99 0 37 2;
#X coords 0 -1 1 1 85 40 2 100 100;
