#N canvas 47 44 1255 697 10;
#N canvas 831 22 804 648 lopassfilter 0;
#X obj 134 390 mtof;
#X floatatom 134 369 5 0 0 0 - #0-pit -;
#X obj 103 436 lop~;
#X floatatom 265 103 5 0 0 0 - - -;
#X text 150 438 low-pass filter;
#X obj 94 557 outlet~;
#X obj 73 246 inlet~;
#X text 200 103 frequencia;
#X text 124 301 --- 0.02 sec ---;
#X text 101 103 filtro low pass;
#X obj 515 307 r~ lowin;
#X obj 575 593 s~ lowout;
#X obj 22 76 inlet;
#X connect 0 0 3 0;
#X connect 1 0 0 0;
#X connect 2 0 5 0;
#X connect 2 0 11 0;
#X connect 3 0 2 1;
#X connect 6 0 2 0;
#X connect 10 0 2 0;
#X connect 12 0 3 0;
#X coords 0 -1 1 1 200 200 2 100 100;
#X restore 605 267 pd lopassfilter;
#N canvas 548 40 733 648 hipass 0;
#X text 174 141 graphing on/off;
#X obj 357 136 +~ 1;
#X obj 356 273 hip~ 5;
#X text 419 274 high-pass filter;
#X floatatom 104 119 5 0 0 0 - - -;
#X msg 104 29 0;
#X text 402 136 add "DC";
#X msg 104 52 3;
#X msg 104 75 220;
#X obj 357 92 inlet~;
#X obj 363 398 outlet~;
#X text 143 123 frequencia;
#X text 101 102 filtro high pass;
#X obj 473 22 r~ hiin;
#X obj 295 401 s~ hiout;
#X obj 174 43 inlet;
#X connect 1 0 2 0;
#X connect 2 0 10 0;
#X connect 2 0 14 0;
#X connect 4 0 2 1;
#X connect 5 0 4 0;
#X connect 7 0 4 0;
#X connect 8 0 4 0;
#X connect 9 0 1 0;
#X connect 13 0 1 0;
#X connect 15 0 4 0;
#X coords 0 -1 1 1 200 200 2 100 100;
#X restore 405 266 pd hipass;
#N canvas 381 77 818 635 switch 0;
#X text 195 36 paralelo;
#X obj 42 249 bng 15 250 50 0 empty empty empty 17 7 0 10 -262144 -1
-1;
#X obj 154 249 bng 15 250 50 0 empty empty empty 17 7 0 10 -262144
-1 -1;
#X obj 342 522 s~ output;
#X obj 69 458 s~ hiin;
#X obj 133 459 s~ lowin;
#X obj 69 427 r~;
#X obj 134 429 r~;
#X obj 229 459 r~;
#X obj 338 458 r~;
#X msg 29 341 set fonte;
#X msg 240 384 set hiout;
#X msg 335 329 set lowout;
#X obj 183 0 vradio 10 1 0 6 empty empty empty 0 -8 0 10 -262144 -1
-1 2;
#X text 135 4 desliga;
#X text 195 17 hipass;
#X text 138 25 lowpass;
#X obj 55 206 select 0 1 2 3 4 5;
#X msg 28 369 set lowout;
#X msg 121 340 set fonte;
#X msg 124 368 set hiout;
#X msg 240 412 set lowout;
#X obj 180 249 bng 15 250 50 0 empty empty empty 17 7 0 10 -262144
-1 -1;
#X obj 203 249 bng 15 250 50 0 empty empty empty 17 7 0 10 -262144
-1 -1;
#X text 195 -1 original;
#X msg 240 356 set null;
#X msg 240 328 set fonte;
#X obj 7 252 bng 15 250 50 0 empty empty empty 17 7 0 10 -262144 -1
-1;
#X msg 397 305 set null;
#X obj 73 249 bng 15 250 50 0 empty empty empty 17 7 0 10 -262144 -1
-1;
#X obj 233 249 bng 15 250 50 0 empty empty empty 17 7 0 10 -262144
-1 -1;
#X obj 275 148 send~ fonte;
#N canvas 0 22 450 300 loadbang 0;
#X obj 85 16 loadbang;
#X obj 85 40 bng 15 250 50 0 empty empty empty 0 -6 0 8 -262144 -1
-1;
#X obj 85 59 f \$0;
#X text 18 179 boxes.;
#X text 16 161 This subpatch loads initial values in number;
#X msg 84 83 \; \$1-pit 60;
#X connect 0 0 1 0;
#X connect 1 0 2 0;
#X connect 2 0 5 0;
#X restore 276 174 pd loadbang;
#X obj 442 177 r~ output;
#X obj 442 231 outlet~;
#X obj 267 116 inlet~;
#X floatatom 59 5 5 0 0 0 - - -;
#X floatatom 59 32 5 0 0 0 - - -;
#X text 95 10 high;
#X text 96 33 low;
#X text 126 45 sequencia;
#X obj 28 85 s hifreq;
#X obj 28 104 s lowfreq;
#X msg -38 -34 440;
#X msg 18 -34 2200;
#X obj 81 -29 loadbang;
#X connect 1 0 25 0;
#X connect 1 0 28 0;
#X connect 2 0 19 0;
#X connect 2 0 28 0;
#X connect 2 0 21 0;
#X connect 6 0 4 0;
#X connect 7 0 5 0;
#X connect 8 0 3 0;
#X connect 9 0 3 0;
#X connect 10 0 6 0;
#X connect 11 0 8 0;
#X connect 12 0 9 0;
#X connect 13 0 17 0;
#X connect 17 0 27 0;
#X connect 17 1 1 0;
#X connect 17 2 29 0;
#X connect 17 3 2 0;
#X connect 17 4 22 0;
#X connect 17 5 23 0;
#X connect 17 6 30 0;
#X connect 18 0 6 0;
#X connect 19 0 7 0;
#X connect 20 0 7 0;
#X connect 21 0 8 0;
#X connect 22 0 19 0;
#X connect 22 0 10 0;
#X connect 22 0 11 0;
#X connect 22 0 12 0;
#X connect 23 0 10 0;
#X connect 23 0 20 0;
#X connect 23 0 21 0;
#X connect 23 0 28 0;
#X connect 25 0 8 0;
#X connect 26 0 8 0;
#X connect 27 0 26 0;
#X connect 27 0 28 0;
#X connect 28 0 9 0;
#X connect 29 0 10 0;
#X connect 29 0 11 0;
#X connect 29 0 28 0;
#X connect 30 0 19 0;
#X connect 30 0 18 0;
#X connect 30 0 11 0;
#X connect 30 0 28 0;
#X connect 33 0 34 0;
#X connect 35 0 31 0;
#X connect 36 0 41 0;
#X connect 37 0 42 0;
#X connect 43 0 37 0;
#X connect 44 0 36 0;
#X connect 45 0 44 0;
#X connect 45 0 43 0;
#X connect 45 0 13 0;
#X coords 0 -1 1 1 200 60 2 50 0;
#X restore 100 100 pd switch;
#X msg 377 75 440;
#X msg 526 76 2000;
#X obj 456 51 bng 15 250 50 0 empty empty empty 17 7 0 10 -262144 -1
-1;
#X msg 675 75 2000;
#X msg 456 77 440;
#X obj 601 45 bng 15 250 50 0 empty empty empty 17 7 0 10 -262144 -1
-1;
#X msg 604 76 440;
#X obj 308 218 r hifreq;
#X obj 681 222 r lowfreq;
#X obj 100 70 inlet~;
#X obj 100 234 outlet~;
#X connect 2 0 13 0;
#X connect 3 0 1 0;
#X connect 3 0 0 0;
#X connect 4 0 0 0;
#X connect 5 0 7 0;
#X connect 5 0 4 0;
#X connect 6 0 1 0;
#X connect 7 0 1 0;
#X connect 8 0 9 0;
#X connect 8 0 6 0;
#X connect 9 0 0 1;
#X connect 10 0 1 0;
#X connect 11 0 0 0;
#X connect 12 0 2 0;
#X coords 0 -1 1 1 200 60 2 100 100;
