#N canvas 370 125 686 536 10;
#X obj 110 229 color;
#X obj 110 177 gemhead 50;
#X obj 43 105 tgl 15 0 empty empty empty 17 7 0 10 -262144 -1 -1 0
1;
#X obj 111 421 s pixs;
#X floatatom 152 339 5 0 0 0 - - -;
#X obj 103 124 tgl 15 0 empty empty empty 17 7 0 10 -262144 -1 -1 0
1;
#X obj 120 102 cnv 15 60 15 empty empty mais 0 8 0 10 -228856 -66577
0;
#X obj 123 124 cnv 15 60 15 empty empty movimento 0 8 0 10 -228856
-66577 0;
#X floatatom 104 142 5 0 0 0 - - -;
#X obj 140 143 cnv 15 40 15 empty empty veloc 0 8 0 10 -228856 -66577
0;
#X obj 59 185 tgl 15 0 empty empty empty 17 7 0 10 -262144 -1 -1 1
1;
#X obj 64 261 inlet;
#X obj 505 132 inlet;
#X obj 261 146 spigot;
#X obj 102 102 tgl 15 0 empty empty empty 17 7 0 10 -262144 -1 -1 1
1;
#X obj 102 54 r ligamais;
#X obj 111 395 rectangle 2 4;
#X obj 334 267 color;
#X obj 334 184 gemhead 50;
#X obj 335 428 s pixs;
#X floatatom 376 346 5 0 0 0 - - -;
#X obj 335 402 rectangle 2 4;
#X obj 338 143 tgl 15 0 empty empty empty 17 7 0 10 -262144 -1 -1 1
1;
#X obj 333 237 rotateXYZ 0 0 90;
#X floatatom 525 369 5 0 0 0 - - -;
#X obj 446 286 spigot;
#X obj 374 316 expr $f1/5;
#X obj 211 41 loadbang;
#X msg 210 62 0;
#X obj 150 309 expr $f1/30;
#X obj 110 201 translateXYZ 0 0 -3.979;
#X obj 334 208 translateXYZ 0 0 -3.979;
#X connect 0 0 16 0;
#X connect 1 0 30 0;
#X connect 2 0 5 0;
#X connect 4 0 16 1;
#X connect 4 0 21 1;
#X connect 10 0 1 0;
#X connect 11 0 13 0;
#X connect 11 0 26 0;
#X connect 11 0 29 0;
#X connect 12 0 0 1;
#X connect 12 0 17 1;
#X connect 14 0 13 1;
#X connect 14 0 10 0;
#X connect 14 0 25 1;
#X connect 14 0 22 0;
#X connect 15 0 2 0;
#X connect 16 0 3 0;
#X connect 17 0 21 0;
#X connect 18 0 31 0;
#X connect 20 0 21 2;
#X connect 20 0 16 2;
#X connect 21 0 19 0;
#X connect 22 0 18 0;
#X connect 23 0 17 0;
#X connect 25 0 26 0;
#X connect 26 0 20 0;
#X connect 27 0 28 0;
#X connect 28 0 14 0;
#X connect 29 0 4 0;
#X connect 30 0 0 0;
#X connect 31 0 23 0;
#X coords 0 -1 1 1 85 20 2 100 100;
