#N canvas 212 49 1019 697 10;
#X obj 597 278 / 127;
#X msg 597 322 \$1 10;
#X obj 596 347 line~;
#X obj 500 376 *~;
#X obj 495 219 receive~ adcl;
#X floatatom 566 396 0 0 100 0 - - -;
#X obj 566 373 / 1.27;
#X obj 108 44 loadbang;
#X obj 224 104 hsl 128 15 0 127 0 0 empty empty empty -2 -8 0 10 -262144
-1 -1 12700 1;
#X text 355 102 volume;
#X obj 521 507 outlet~;
#X obj 303 123 hsl 50 15 0 127 0 0 empty empty empty -2 -8 0 10 -262144
-1 -1 0 1;
#X obj 437 425 env~ 10000;
#X obj 437 447 dbtorms;
#X text 323 122 |;
#X obj 437 471 * 127;
#X text 335 122 |;
#X text 309 122 |;
#X obj 108 72 127;
#X obj 191 220 adc~;
#X obj 232 290 send~ adcl;
#X obj 191 258 spigot~;
#X obj 205 121 tgl 15 0 empty empty mic 17 7 0 10 -258113 -262144 -1
0 1;
#X text 363 123 in;
#X obj 597 301 pow 2;
#X obj 500 400 *~ 15;
#X obj 596 508 outlet~;
#X connect 0 0 24 0;
#X connect 1 0 2 0;
#X connect 2 0 3 1;
#X connect 3 0 25 0;
#X connect 4 0 3 0;
#X connect 6 0 5 0;
#X connect 7 0 18 0;
#X connect 8 0 0 0;
#X connect 12 0 13 0;
#X connect 13 0 15 0;
#X connect 15 0 11 0;
#X connect 18 0 8 0;
#X connect 19 0 21 0;
#X connect 21 1 20 0;
#X connect 22 0 21 1;
#X connect 24 0 1 0;
#X connect 25 0 10 0;
#X connect 25 0 12 0;
#X connect 25 0 26 0;
#X coords 0 -1 1 1 200 40 2 200 100;
