#N canvas 0 22 503 483 10;
#X floatatom 100 112 5 0 0 0 - - -;
#X obj 100 130 hradio 10 1 0 4 empty empty empty 0 -8 0 10 -262144
-1 -1 2;
#X obj 114 32 inlet;
#X obj 91 276 t b f;
#X obj 136 276 t b f;
#X obj 118 322 pack f f;
#X obj 118 394 s notechord;
#X obj 287 124 tgl 15 0 empty empty empty 17 7 0 10 -262144 -1 -1 0
1;
#X floatatom 241 230 5 0 0 0 - - -;
#X obj 300 34 inlet;
#X obj 241 124 t b;
#X obj 145 178 value nota;
#X obj 241 181 value nota;
#X obj 216 134 bng 15 250 50 0 empty empty empty 17 7 0 10 -262144
-1 -1;
#X obj 118 359 spigot;
#X connect 0 0 3 0;
#X connect 0 0 11 0;
#X connect 1 0 4 0;
#X connect 2 0 7 0;
#X connect 2 0 10 0;
#X connect 3 1 5 0;
#X connect 4 0 5 0;
#X connect 4 1 5 1;
#X connect 5 0 14 0;
#X connect 7 0 14 1;
#X connect 8 0 5 0;
#X connect 9 0 0 0;
#X connect 10 0 5 0;
#X connect 10 0 12 0;
#X connect 10 0 0 0;
#X connect 12 0 8 0;
#X connect 13 0 12 0;
#X connect 14 0 6 0;
#X coords 0 -1 1 1 40 40 2 100 100;
