#N canvas 0 22 1165 645 10;
#X obj 276 116 vu 10 160 empty empty -1 -8 0 10 -66577 -1 0 0;
#X obj 587 208 inlet~;
#X obj 587 343 *~;
#X obj 622 261 / 127;
#X obj 622 310 line~;
#X msg 622 285 \$1 100;
#X obj 734 203 inlet~;
#X obj 734 338 *~;
#X obj 769 256 / 127;
#X obj 769 305 line~;
#X msg 769 280 \$1 100;
#X obj 904 196 inlet~;
#X obj 904 331 *~;
#X obj 939 249 / 127;
#X obj 939 298 line~;
#X msg 939 273 \$1 100;
#X obj 1161 331 *~;
#X obj 1196 249 / 127;
#X obj 1196 298 line~;
#X msg 1196 273 \$1 100;
#X obj 1160 199 inlet~;
#X obj 702 585 *~;
#X obj 746 474 / 127;
#X obj 746 542 line~;
#X msg 746 517 \$1 100;
#X obj 800 583 *~;
#N canvas 150 111 447 424 channel-one 0;
#X obj 262 274 *~;
#X obj 98 273 *~;
#X obj 277 150 / 127;
#X obj 277 199 line~;
#X msg 277 174 \$1 10;
#X obj 113 197 / 127;
#X obj 113 246 line~;
#X msg 113 221 \$1 10;
#X msg 113 148 127 \$1;
#X obj 113 173 -;
#X obj 98 35 inlet~;
#X obj 262 34 inlet~;
#X obj 113 108 inlet;
#X obj 277 108 inlet;
#X obj 98 330 outlet~;
#X obj 262 332 outlet~;
#X connect 0 0 15 0;
#X connect 1 0 14 0;
#X connect 2 0 4 0;
#X connect 3 0 0 1;
#X connect 4 0 3 0;
#X connect 5 0 7 0;
#X connect 6 0 1 1;
#X connect 7 0 6 0;
#X connect 8 0 9 0;
#X connect 9 0 5 0;
#X connect 10 0 1 0;
#X connect 11 0 0 0;
#X connect 12 0 8 0;
#X connect 13 0 2 0;
#X restore 569 440 pd channel-one;
#N canvas 150 111 447 424 channel-two 0;
#X obj 262 274 *~;
#X obj 98 273 *~;
#X obj 277 150 / 127;
#X obj 277 199 line~;
#X msg 277 174 \$1 10;
#X obj 113 197 / 127;
#X obj 113 246 line~;
#X msg 113 221 \$1 10;
#X msg 113 148 127 \$1;
#X obj 113 173 -;
#X obj 98 35 inlet~;
#X obj 262 34 inlet~;
#X obj 113 108 inlet;
#X obj 277 108 inlet;
#X obj 98 330 outlet~;
#X obj 262 332 outlet~;
#X connect 0 0 15 0;
#X connect 1 0 14 0;
#X connect 2 0 4 0;
#X connect 3 0 0 1;
#X connect 4 0 3 0;
#X connect 5 0 7 0;
#X connect 6 0 1 1;
#X connect 7 0 6 0;
#X connect 8 0 9 0;
#X connect 9 0 5 0;
#X connect 10 0 1 0;
#X connect 11 0 0 0;
#X connect 12 0 8 0;
#X connect 13 0 2 0;
#X restore 713 438 pd channel-two;
#X obj 645 602 env~;
#X obj 645 632 - 96;
#X obj 835 600 env~;
#X obj 835 630 - 96;
#N canvas 150 111 447 424 channel-three 0;
#X obj 262 274 *~;
#X obj 98 273 *~;
#X obj 277 150 / 127;
#X obj 277 199 line~;
#X msg 277 174 \$1 10;
#X obj 113 197 / 127;
#X obj 113 246 line~;
#X msg 113 221 \$1 10;
#X msg 113 148 127 \$1;
#X obj 113 173 -;
#X obj 98 35 inlet~;
#X obj 262 34 inlet~;
#X obj 113 108 inlet;
#X obj 277 108 inlet;
#X obj 98 330 outlet~;
#X obj 262 332 outlet~;
#X connect 0 0 15 0;
#X connect 1 0 14 0;
#X connect 2 0 4 0;
#X connect 3 0 0 1;
#X connect 4 0 3 0;
#X connect 5 0 7 0;
#X connect 6 0 1 1;
#X connect 7 0 6 0;
#X connect 8 0 9 0;
#X connect 9 0 5 0;
#X connect 10 0 1 0;
#X connect 11 0 0 0;
#X connect 12 0 8 0;
#X connect 13 0 2 0;
#X restore 904 438 pd channel-three;
#N canvas 150 111 447 424 channel-four 0;
#X obj 262 274 *~;
#X obj 98 273 *~;
#X obj 277 150 / 127;
#X obj 277 199 line~;
#X msg 277 174 \$1 10;
#X obj 113 197 / 127;
#X obj 113 246 line~;
#X msg 113 221 \$1 10;
#X msg 113 148 127 \$1;
#X obj 113 173 -;
#X obj 98 35 inlet~;
#X obj 262 34 inlet~;
#X obj 113 108 inlet;
#X obj 277 108 inlet;
#X obj 98 330 outlet~;
#X obj 262 332 outlet~;
#X connect 0 0 15 0;
#X connect 1 0 14 0;
#X connect 2 0 4 0;
#X connect 3 0 0 1;
#X connect 4 0 3 0;
#X connect 5 0 7 0;
#X connect 6 0 1 1;
#X connect 7 0 6 0;
#X connect 8 0 9 0;
#X connect 9 0 5 0;
#X connect 10 0 1 0;
#X connect 11 0 0 0;
#X connect 12 0 8 0;
#X connect 13 0 2 0;
#X restore 1184 440 pd channel-four;
#X obj 640 28 inlet~;
#X text 583 189 IN 1;
#X text 643 8 PAN 1;
#X obj 640 95 snapshot~;
#X obj 703 78 metro 1;
#X obj 703 58 tgl 15 0 empty empty empty 17 7 0 10 -262144 -1 -1 1
1;
#X obj 703 34 loadbang;
#X obj 639 121 t b f;
#X obj 596 410 +;
#X obj 650 409 +;
#X obj 640 64 *~ 127;
#X obj 788 35 inlet~;
#X obj 788 102 snapshot~;
#X obj 851 85 metro 1;
#X obj 851 65 tgl 15 0 empty empty empty 17 7 0 10 -262144 -1 -1 1
1;
#X obj 851 41 loadbang;
#X obj 787 128 t b f;
#X obj 788 71 *~ 127;
#X text 791 15 PAN 2;
#X obj 740 414 +;
#X obj 794 413 +;
#X obj 1010 49 inlet~;
#X obj 1010 116 snapshot~;
#X obj 1073 99 metro 1;
#X obj 1073 79 tgl 15 0 empty empty empty 17 7 0 10 -262144 -1 -1 1
1;
#X obj 1073 55 loadbang;
#X obj 1009 142 t b f;
#X obj 1010 85 *~ 127;
#X text 1013 29 PAN 3;
#X text 735 186 IN 2;
#X text 902 178 IN 3;
#X obj 934 405 +;
#X obj 988 404 +;
#X obj 1210 60 inlet~;
#X obj 1210 127 snapshot~;
#X obj 1273 110 metro 1;
#X obj 1273 90 tgl 15 0 empty empty empty 17 7 0 10 -262144 -1 -1 1
1;
#X obj 1273 66 loadbang;
#X obj 1209 153 t b f;
#X obj 1210 96 *~ 127;
#X text 1213 40 PAN 4;
#X obj 1210 407 +;
#X obj 1264 406 +;
#X obj 746 497 * 0.5;
#X obj 713 696 dac~ 1 2;
#X obj 102 101 cnv 3 10 10 empty empty IN1 0 5 1 7 -228856 -66577 0
;
#X obj 122 101 cnv 3 10 10 empty empty PAN1 0 5 1 7 -228856 -66577
0;
#X obj 151 101 cnv 3 10 10 empty empty IN2 0 5 1 7 -228856 -66577 0
;
#X obj 174 101 cnv 3 10 10 empty empty PAN2 0 5 1 7 -228856 -66577
0;
#X obj 206 101 cnv 3 10 10 empty empty IN3 0 5 1 7 -228856 -66577 0
;
#X obj 228 101 cnv 3 10 10 empty empty PAN3 0 5 1 7 -228856 -66577
0;
#X obj 259 101 cnv 3 10 10 empty empty IN4 0 5 1 7 -228856 -66577 0
;
#X obj 274 101 cnv 3 10 10 empty empty PAN4 0 5 1 7 -228856 -66577
0;
#X obj 106 134 hsl 128 15 0 127 0 1 empty empty pan1 100 10 0 10 -262144
-1 -1 7700 0;
#X obj 106 116 hsl 128 15 0 127 0 1 empty empty in_1 100 10 0 10 -262144
-1 -1 12700 0;
#X obj 106 170 hsl 128 15 0 127 0 1 empty empty pan2 100 10 0 10 -262144
-1 -1 6200 0;
#X obj 106 152 hsl 128 15 0 127 0 1 empty empty in_2 100 10 0 10 -262144
-1 -1 12700 0;
#X text 460 458 pan1;
#X obj 106 188 hsl 128 15 0 127 0 1 empty empty in_3 100 10 0 10 -262144
-1 -1 12700 0;
#X obj 106 224 hsl 128 15 0 127 0 1 empty empty in_4 100 10 0 10 -262144
-1 -1 12700 0;
#X obj 106 206 hsl 128 15 0 127 0 1 empty empty pan3 100 10 0 10 -262144
-1 -1 6100 0;
#X obj 106 242 hsl 128 15 0 127 0 1 empty empty pan4 100 10 0 10 -262144
-1 -1 6200 0;
#X obj 260 116 vu 10 160 empty empty -1 -8 0 10 -66577 -1 0 0;
#X obj 106 261 hsl 128 15 0 127 0 1 empty empty master 90 10 0 10 -258113
-262144 -262144 12700 1;
#X connect 1 0 2 0;
#X connect 2 0 26 0;
#X connect 2 0 26 2;
#X connect 3 0 5 0;
#X connect 4 0 2 1;
#X connect 5 0 4 0;
#X connect 6 0 7 0;
#X connect 7 0 27 0;
#X connect 7 0 27 2;
#X connect 8 0 10 0;
#X connect 9 0 7 1;
#X connect 10 0 9 0;
#X connect 11 0 12 0;
#X connect 12 0 32 0;
#X connect 12 0 32 2;
#X connect 13 0 15 0;
#X connect 14 0 12 1;
#X connect 15 0 14 0;
#X connect 16 0 33 0;
#X connect 16 0 33 2;
#X connect 17 0 19 0;
#X connect 18 0 16 1;
#X connect 19 0 18 0;
#X connect 20 0 16 0;
#X connect 21 0 28 0;
#X connect 21 0 78 0;
#X connect 22 0 77 0;
#X connect 23 0 21 1;
#X connect 23 0 25 1;
#X connect 24 0 23 0;
#X connect 25 0 30 0;
#X connect 25 0 78 1;
#X connect 26 0 21 0;
#X connect 26 1 25 0;
#X connect 27 0 21 0;
#X connect 27 1 25 0;
#X connect 28 0 29 0;
#X connect 29 0 96 0;
#X connect 30 0 31 0;
#X connect 31 0 0 0;
#X connect 32 0 21 0;
#X connect 32 1 25 0;
#X connect 33 0 21 0;
#X connect 33 1 25 0;
#X connect 34 0 44 0;
#X connect 37 0 41 0;
#X connect 38 0 37 0;
#X connect 39 0 38 0;
#X connect 40 0 39 0;
#X connect 41 0 42 0;
#X connect 41 0 43 0;
#X connect 41 1 42 1;
#X connect 41 1 43 1;
#X connect 42 0 26 1;
#X connect 43 0 26 3;
#X connect 44 0 37 0;
#X connect 45 0 51 0;
#X connect 46 0 50 0;
#X connect 47 0 46 0;
#X connect 48 0 47 0;
#X connect 49 0 48 0;
#X connect 50 0 53 0;
#X connect 50 0 54 0;
#X connect 50 1 53 1;
#X connect 50 1 54 1;
#X connect 51 0 46 0;
#X connect 53 0 27 1;
#X connect 54 0 27 3;
#X connect 55 0 61 0;
#X connect 56 0 60 0;
#X connect 57 0 56 0;
#X connect 58 0 57 0;
#X connect 59 0 58 0;
#X connect 60 0 65 0;
#X connect 60 0 66 0;
#X connect 60 1 65 1;
#X connect 60 1 66 1;
#X connect 61 0 56 0;
#X connect 65 0 32 1;
#X connect 66 0 32 3;
#X connect 67 0 73 0;
#X connect 68 0 72 0;
#X connect 69 0 68 0;
#X connect 70 0 69 0;
#X connect 71 0 70 0;
#X connect 72 0 75 0;
#X connect 72 0 76 0;
#X connect 72 1 75 1;
#X connect 72 1 76 1;
#X connect 73 0 68 0;
#X connect 75 0 33 1;
#X connect 76 0 33 3;
#X connect 77 0 24 0;
#X connect 87 0 42 0;
#X connect 87 0 43 0;
#X connect 88 0 3 0;
#X connect 89 0 53 0;
#X connect 89 0 54 0;
#X connect 90 0 8 0;
#X connect 92 0 13 0;
#X connect 93 0 17 0;
#X connect 94 0 65 0;
#X connect 94 0 66 0;
#X connect 95 0 75 0;
#X connect 95 0 76 0;
#X connect 97 0 22 0;
#X coords 0 -1 1 1 200 180 1 100 100;
