#N canvas 513 134 693 574 10;
#X obj 110 229 color;
#X obj 110 177 gemhead 50;
#X floatatom 332 370 5 0 0 0 - - -;
#X obj 120 103 cnv 15 60 15 empty empty retangulo_h 0 8 0 10 -228856
-66577 0;
#X obj 110 201 translateXYZ 0 0 -3.99;
#X obj 59 185 tgl 15 0 empty empty empty 17 7 0 10 -262144 -1 -1 1
1;
#X obj 132 56 inlet;
#X obj 224 233 inlet;
#X obj 261 146 spigot;
#X obj 103 102 tgl 15 0 empty empty empty 17 7 0 10 -262144 -1 -1 1
1;
#X obj 241 71 loadbang;
#X msg 240 92 0;
#X obj 110 267 rectangle 10.666 8;
#X obj 330 340 expr ($f1/100*16)-16;
#X connect 0 0 12 0;
#X connect 1 0 4 0;
#X connect 2 0 4 2;
#X connect 4 0 0 0;
#X connect 5 0 1 0;
#X connect 6 0 8 0;
#X connect 7 0 0 1;
#X connect 8 0 13 0;
#X connect 9 0 8 1;
#X connect 9 0 5 0;
#X connect 10 0 11 0;
#X connect 11 0 9 0;
#X connect 13 0 2 0;
#X coords 0 -1 1 1 85 20 2 100 100;
