#N canvas 477 179 450 300 10;
#X obj 106 68 sample;
#X obj 106 18 bng 15 250 50 0 empty empty empty 17 7 0 10 -262144 -1
-1;
#X obj 118 195 dac~;
#X connect 0 0 2 0;
#X connect 0 1 2 1;
#X connect 1 0 0 0;
