#N canvas 64 49 1159 606 10;
#X obj 101 11 cnv 15 198 58 empty empty empty 20 12 0 14 -262144 -66577
0;
#X obj 484 222 soundfiler;
#X obj 87 336 tabplay~ \$0-gauche;
#X obj 100 159 / 127;
#X obj 100 185 pow 2;
#X msg 100 210 \$1 10;
#X obj 100 236 line;
#X obj 88 373 *~ 0;
#X obj 125 373 *~ 0;
#X obj 484 323 /;
#X obj 514 300 samplerate~;
#X obj 484 277 t f b;
#X obj 502 251 s \$0-taille;
#X floatatom 406 264 5 0 0 0 - - -;
#X floatatom 407 376 5 0 0 0 - - -;
#X text 543 19 attention droite!;
#N canvas 0 22 450 300 (subpatch) 0;
#X array \$0-gauche 80130 float 2;
#X coords 0 1 80130 -1 173 20 1;
#X restore 103 48 graph;
#X obj 279 52 bng 15 250 50 0 empty empty empty 17 7 0 10 -262144 -1
-1;
#X symbolatom 104 30 32 0 0 0 - - -;
#X obj 48 34 inlet;
#X obj 22 141 r \$1-volume;
#X obj 104 14 bng 15 250 50 0 empty empty empty 17 7 0 10 -262144 -1
-1;
#X obj 547 68 openpanel;
#X obj 87 422 outlet~;
#X obj 125 463 outlet~;
#X obj 536 129 pack s \$0;
#X floatatom 577 417 5 0 0 0 - - -;
#X text 121 15 open;
#N canvas 0 22 450 300 (subpatch) 0;
#X array \$0-droit 80130 float 2;
#X coords 0 1 80130 -1 173 20 1;
#X restore 68 658 graph;
#X msg 484 198 read -resize \$1 \$2-gauche \$2-droit;
#X obj 219 335 tabplay~ \$0-droit;
#X obj 168 12 hsl 128 15 0 127 0 0 empty empty empty -2 -8 0 10 -262144
-1 -1 0 0;
#X text 405 389 sec;
#X msg 646 149;
#X connect 1 0 11 0;
#X connect 1 0 12 0;
#X connect 1 0 13 0;
#X connect 2 0 7 0;
#X connect 3 0 4 0;
#X connect 4 0 5 0;
#X connect 5 0 6 0;
#X connect 6 0 7 1;
#X connect 6 0 8 1;
#X connect 7 0 23 0;
#X connect 7 0 24 0;
#X connect 8 0 24 0;
#X connect 8 0 23 0;
#X connect 9 0 14 0;
#X connect 9 0 26 0;
#X connect 10 0 9 1;
#X connect 11 0 9 0;
#X connect 11 1 10 0;
#X connect 17 0 2 0;
#X connect 17 0 30 0;
#X connect 19 0 17 0;
#X connect 20 0 31 0;
#X connect 21 0 22 0;
#X connect 22 0 25 0;
#X connect 22 0 18 0;
#X connect 25 0 29 0;
#X connect 29 0 1 0;
#X connect 30 0 8 0;
#X connect 31 0 3 0;
#X coords 0 -1 1 1 200 60 2 100 10;
