#N canvas 0 22 759 671 10;
#X obj 209 105 hsl 128 15 0 127 0 0 empty empty ganho 80 10 0 10 -262144
-1 -1 6800 1;
#X obj 199 266 mtof;
#X floatatom 344 121 8 0 0 0 - - -;
#X obj 184 437 -~ 0.5;
#X obj 184 411 clip~ 0 2;
#X obj 184 379 lop~ 200;
#X obj 209 122 hsl 128 15 0 127 0 0 empty empty volume 80 10 0 10 -262144
-1 -1 9900 1;
#X obj 382 370 / 127;
#X obj 382 392 pow 2;
#X msg 382 414 \$1 10;
#X obj 382 439 line~;
#X obj 184 478 *~;
#X msg 199 293 \$1 10;
#X obj 199 318 line~;
#X obj 184 339 *~;
#X obj 255 557 outlet~;
#X text 341 101 saturador;
#X obj 132 85 r~ adcl;
#X obj 119 556 outlet~;
#X connect 0 0 1 0;
#X connect 1 0 2 0;
#X connect 1 0 12 0;
#X connect 3 0 11 0;
#X connect 4 0 3 0;
#X connect 5 0 4 0;
#X connect 6 0 7 0;
#X connect 7 0 8 0;
#X connect 8 0 9 0;
#X connect 9 0 10 0;
#X connect 10 0 11 1;
#X connect 11 0 15 0;
#X connect 11 0 18 0;
#X connect 12 0 13 0;
#X connect 13 0 14 1;
#X connect 14 0 5 0;
#X connect 17 0 14 0;
#X coords 0 -1 1 1 200 40 2 200 100;
