#N canvas 57 22 1113 686 10;
#X obj -347 -193 bng 15 250 50 0 empty empty empty 17 7 0 10 -262144
-1 -1;
#X obj -347 -5 delay 200;
#X obj 485 102 tgl 15 0 empty empty empty 17 7 0 10 -262144 -1 -1 0
4.0879;
#X obj -43 -174 metro 300;
#X obj -269 17 bng 15 250 50 0 empty empty empty 17 7 0 10 -262144
-1 -1;
#X floatatom 244 -327 5 0 0 0 - - -;
#X obj -251 -7 delay 200;
#X floatatom 279 -327 5 0 0 0 - - -;
#X obj -174 -7 delay 200;
#X floatatom 311 -327 5 0 0 0 - - -;
#X obj -95 -7 delay 200;
#X floatatom 344 -327 5 0 0 0 - - -;
#X obj -253 54 +;
#X obj -164 54 +;
#X obj -84 54 +;
#X obj 147 102 bng 15 250 50 0 empty empty empty 17 7 0 10 -262144
-1 -1;
#X obj 168 102 bng 15 250 50 0 empty empty empty 17 7 0 10 -262144
-1 -1;
#X obj 190 102 bng 15 250 50 0 empty empty empty 17 7 0 10 -262144
-1 -1;
#X obj 211 102 bng 15 250 50 0 empty empty empty 17 7 0 10 -262144
-1 -1;
#X obj -150 -249 bng 15 250 50 0 empty empty empty 17 7 0 10 -262144
-1 -1;
#X obj -297 -34 * 100;
#X obj -230 -36 * 100;
#X obj -157 -37 * 100;
#X obj -78 -37 * 100;
#X obj -11 -7 delay 200;
#X floatatom 377 -327 5 0 0 0 - - -;
#X obj 0 54 +;
#X obj 6 -37 * 100;
#X obj 70 -7 delay 200;
#X floatatom 410 -327 5 0 0 0 - - -;
#X obj 81 54 +;
#X obj 87 -37 * 100;
#X obj 155 -7 delay 200;
#X floatatom 443 -327 5 0 0 0 - - -;
#X obj 166 54 +;
#X obj 172 -37 * 100;
#X obj 236 -7 delay 200;
#X floatatom 491 -327 5 0 0 0 - - -;
#X obj 247 54 +;
#X obj 253 -37 * 100;
#X obj 232 102 bng 15 250 50 0 empty empty empty 17 7 0 10 -262144
-1 -1;
#X obj 253 102 bng 15 250 50 0 empty empty empty 17 7 0 10 -262144
-1 -1;
#X obj 274 102 bng 15 250 50 0 empty empty empty 17 7 0 10 -262144
-1 -1;
#X obj 295 102 bng 15 250 50 0 empty empty empty 17 7 0 10 -262144
-1 -1;
#X obj 317 -11 delay 200;
#X floatatom 513 -327 5 0 0 0 - - -;
#X obj 328 54 +;
#X obj 334 -37 * 100;
#X obj 401 -11 delay 200;
#X floatatom 535 -327 5 0 0 0 - - -;
#X obj 412 54 +;
#X obj 418 -37 * 100;
#X obj 783 -14 delay 200;
#X floatatom 558 -327 5 0 0 0 - - -;
#X obj 772 22 bng 15 250 50 0 empty empty empty 17 7 0 10 -262144 -1
-1;
#X obj 794 51 +;
#X obj 800 -40 * 100;
#X obj 316 102 bng 15 250 50 0 empty empty empty 17 7 0 10 -262144
-1 -1;
#X obj 337 102 bng 15 250 50 0 empty empty empty 17 7 0 10 -262144
-1 -1;
#X obj 358 102 bng 15 250 50 0 empty empty empty 17 7 0 10 -262144
-1 -1;
#X obj 463 102 bng 15 250 50 0 empty empty empty 17 7 0 10 -262144
-1 -1;
#X obj 799 -146 bng 15 250 50 0 empty empty empty 17 7 0 10 -262144
-1 -1;
#X obj 858 -13 delay 200;
#X obj 869 52 +;
#X obj 875 -39 * 100;
#X floatatom 827 74 5 0 0 0 - - -;
#X floatatom 275 -396 5 0 0 0 - - -;
#X text 339 -397 para igualar todos os tempos;
#X obj -288 189 outlet;
#X obj 165 -397 inlet;
#X obj 532 117 outlet;
#X obj 527 -400 inlet;
#X obj 60 -186 cnv 15 15 15 empty empty empty 20 12 0 14 -258113 -66577
0;
#X obj 67 -186 cnv 15 15 15 empty empty empty 20 12 0 14 -260097 -66577
0;
#X obj 87 -186 cnv 15 15 15 empty empty empty 20 12 0 14 -4160 -66577
0;
#X obj 490 -11 delay 200;
#X obj 501 54 +;
#X obj 507 -37 * 100;
#X obj 565 -11 delay 200;
#X obj 576 54 +;
#X obj 582 -37 * 100;
#X obj 442 102 bng 15 250 50 0 empty empty empty 17 7 0 10 -262144
-1 -1;
#X obj 421 102 bng 15 250 50 0 empty empty empty 17 7 0 10 -262144
-1 -1;
#X obj 401 102 bng 15 250 50 0 empty empty empty 17 7 0 10 -262144
-1 -1;
#X obj 379 102 bng 15 250 50 0 empty empty empty 17 7 0 10 -262144
-1 -1;
#X floatatom 580 -327 5 0 0 0 - - -;
#X obj 639 -14 delay 200;
#X obj 650 51 +;
#X obj 656 -40 * 100;
#X obj 716 -13 delay 200;
#X obj 727 52 +;
#X obj 733 -39 * 100;
#X floatatom 602 -327 5 0 0 0 - - -;
#X floatatom 623 -327 5 0 0 0 - - -;
#X floatatom 647 -327 5 0 0 0 - - -;
#X floatatom 670 -327 5 0 0 0 - - -;
#X floatatom -208 -128 5 0 0 0 - - -;
#X obj -88 -343 f;
#X obj 6 -344 f;
#X obj 326 -372 inlet;
#X obj -286 -309 f;
#X obj -286 -334 t b f;
#X obj -286 -288 * 1;
#X obj -285 -399 / 127;
#X msg -285 -376 1 \$1;
#X obj -285 -355 -;
#X obj -216 -319 f;
#X obj -216 -344 t b f;
#X obj -216 -298 * 1;
#X obj -216 -372 + 1;
#X obj 98 -360 inlet;
#X obj 121 -372 unpack f f f f f f f f f f f f f f f f;
#X obj 594 117 outlet;
#X obj 35 459 spigot;
#X obj 147 123 tgl 15 0 empty empty empty 17 7 0 10 -262144 -1 -1 1
1;
#X obj 85 459 spigot;
#X obj 168 123 tgl 15 0 empty empty empty 17 7 0 10 -262144 -1 -1 0
1;
#X obj 135 459 spigot;
#X obj 189 123 tgl 15 0 empty empty empty 17 7 0 10 -262144 -1 -1 0
1;
#X obj 185 459 spigot;
#X obj 210 123 tgl 15 0 empty empty empty 17 7 0 10 -262144 -1 -1 0
1;
#X obj 235 459 spigot;
#X obj 231 123 tgl 15 0 empty empty empty 17 7 0 10 -262144 -1 -1 1
1;
#X obj 285 459 spigot;
#X obj 252 123 tgl 15 0 empty empty empty 17 7 0 10 -262144 -1 -1 0
1;
#X obj 335 459 spigot;
#X obj 273 123 tgl 15 0 empty empty empty 17 7 0 10 -262144 -1 -1 1
1;
#X obj 385 459 spigot;
#X obj 294 123 tgl 15 0 empty empty empty 17 7 0 10 -262144 -1 -1 0
1;
#X obj 435 459 spigot;
#X obj 315 123 tgl 15 0 empty empty empty 17 7 0 10 -262144 -1 -1 0
1;
#X obj 485 459 spigot;
#X obj 336 123 tgl 15 0 empty empty empty 17 7 0 10 -262144 -1 -1 0
1;
#X obj 535 459 spigot;
#X obj 357 123 tgl 15 0 empty empty empty 17 7 0 10 -262144 -1 -1 1
1;
#X obj 585 459 spigot;
#X obj 379 123 tgl 15 0 empty empty empty 17 7 0 10 -262144 -1 -1 0
1;
#X obj 635 459 spigot;
#X obj 400 123 tgl 15 0 empty empty empty 17 7 0 10 -262144 -1 -1 1
1;
#X obj 685 459 spigot;
#X obj 421 123 tgl 15 0 empty empty empty 17 7 0 10 -262144 -1 -1 0
1;
#X obj 735 459 spigot;
#X obj 442 123 tgl 15 0 empty empty empty 17 7 0 10 -262144 -1 -1 0
1;
#X obj 785 459 spigot;
#X obj 463 123 tgl 15 0 empty empty empty 17 7 0 10 -262144 -1 -1 1
1;
#X msg -201 19 bang;
#X msg -116 16 bang;
#X msg 682 20 bang;
#X msg -78 19 bang;
#X msg 2 19 bang;
#X msg 70 19 bang;
#X msg 127 19 bang;
#X msg 209 23 bang;
#X msg 316 29 bang;
#X msg 372 26 bang;
#X msg 442 29 bang;
#X msg 510 29 bang;
#X msg 599 -87 bang;
#X obj 654 117 outlet;
#X obj 36 505 spigot;
#X obj 147 143 tgl 15 0 empty empty empty 17 7 0 10 -262144 -1 -1 0
1;
#X obj 86 505 spigot;
#X obj 168 143 tgl 15 0 empty empty empty 17 7 0 10 -262144 -1 -1 0
1;
#X obj 136 505 spigot;
#X obj 189 143 tgl 15 0 empty empty empty 17 7 0 10 -262144 -1 -1 0
1;
#X obj 186 505 spigot;
#X obj 210 143 tgl 15 0 empty empty empty 17 7 0 10 -262144 -1 -1 0
1;
#X obj 236 505 spigot;
#X obj 231 143 tgl 15 0 empty empty empty 17 7 0 10 -262144 -1 -1 0
1;
#X obj 286 505 spigot;
#X obj 252 143 tgl 15 0 empty empty empty 17 7 0 10 -262144 -1 -1 0
1;
#X obj 336 505 spigot;
#X obj 273 143 tgl 15 0 empty empty empty 17 7 0 10 -262144 -1 -1 0
1;
#X obj 386 505 spigot;
#X obj 294 143 tgl 15 0 empty empty empty 17 7 0 10 -262144 -1 -1 0
1;
#X obj 436 505 spigot;
#X obj 315 143 tgl 15 0 empty empty empty 17 7 0 10 -262144 -1 -1 0
1;
#X obj 486 505 spigot;
#X obj 336 143 tgl 15 0 empty empty empty 17 7 0 10 -262144 -1 -1 0
1;
#X obj 536 505 spigot;
#X obj 357 143 tgl 15 0 empty empty empty 17 7 0 10 -262144 -1 -1 0
1;
#X obj 586 505 spigot;
#X obj 379 143 tgl 15 0 empty empty empty 17 7 0 10 -262144 -1 -1 0
1;
#X obj 636 505 spigot;
#X obj 400 143 tgl 15 0 empty empty empty 17 7 0 10 -262144 -1 -1 0
1;
#X obj 686 505 spigot;
#X obj 421 143 tgl 15 0 empty empty empty 17 7 0 10 -262144 -1 -1 0
1;
#X obj 736 505 spigot;
#X obj 442 143 tgl 15 0 empty empty empty 17 7 0 10 -262144 -1 -1 0
1;
#X obj 786 505 spigot;
#X obj 463 143 tgl 15 0 empty empty empty 17 7 0 10 -262144 -1 -1 0
1;
#X obj 716 117 outlet;
#X obj 36 554 spigot;
#X obj 147 164 tgl 15 0 empty empty empty 17 7 0 10 -262144 -1 -1 0
1;
#X obj 86 554 spigot;
#X obj 168 164 tgl 15 0 empty empty empty 17 7 0 10 -262144 -1 -1 0
1;
#X obj 136 554 spigot;
#X obj 189 164 tgl 15 0 empty empty empty 17 7 0 10 -262144 -1 -1 0
1;
#X obj 186 554 spigot;
#X obj 210 164 tgl 15 0 empty empty empty 17 7 0 10 -262144 -1 -1 0
1;
#X obj 236 554 spigot;
#X obj 231 164 tgl 15 0 empty empty empty 17 7 0 10 -262144 -1 -1 0
1;
#X obj 286 554 spigot;
#X obj 252 164 tgl 15 0 empty empty empty 17 7 0 10 -262144 -1 -1 0
1;
#X obj 336 554 spigot;
#X obj 273 164 tgl 15 0 empty empty empty 17 7 0 10 -262144 -1 -1 0
1;
#X obj 386 554 spigot;
#X obj 294 164 tgl 15 0 empty empty empty 17 7 0 10 -262144 -1 -1 0
1;
#X obj 436 554 spigot;
#X obj 315 164 tgl 15 0 empty empty empty 17 7 0 10 -262144 -1 -1 0
1;
#X obj 486 554 spigot;
#X obj 336 164 tgl 15 0 empty empty empty 17 7 0 10 -262144 -1 -1 0
1;
#X obj 536 554 spigot;
#X obj 357 164 tgl 15 0 empty empty empty 17 7 0 10 -262144 -1 -1 0
1;
#X obj 586 554 spigot;
#X obj 379 164 tgl 15 0 empty empty empty 17 7 0 10 -262144 -1 -1 0
1;
#X obj 636 554 spigot;
#X obj 400 164 tgl 15 0 empty empty empty 17 7 0 10 -262144 -1 -1 0
1;
#X obj 686 554 spigot;
#X obj 421 164 tgl 15 0 empty empty empty 17 7 0 10 -262144 -1 -1 0
1;
#X obj 736 554 spigot;
#X obj 442 164 tgl 15 0 empty empty empty 17 7 0 10 -262144 -1 -1 0
1;
#X obj 786 554 spigot;
#X obj 463 164 tgl 15 0 empty empty empty 17 7 0 10 -262144 -1 -1 0
1;
#X obj 780 117 outlet;
#X obj 34 598 spigot;
#X obj 147 185 tgl 15 0 empty empty empty 17 7 0 10 -262144 -1 -1 0
1;
#X obj 84 598 spigot;
#X obj 168 185 tgl 15 0 empty empty empty 17 7 0 10 -262144 -1 -1 0
1;
#X obj 134 598 spigot;
#X obj 189 185 tgl 15 0 empty empty empty 17 7 0 10 -262144 -1 -1 0
1;
#X obj 184 598 spigot;
#X obj 210 185 tgl 15 0 empty empty empty 17 7 0 10 -262144 -1 -1 0
1;
#X obj 234 598 spigot;
#X obj 231 185 tgl 15 0 empty empty empty 17 7 0 10 -262144 -1 -1 0
1;
#X obj 284 598 spigot;
#X obj 252 185 tgl 15 0 empty empty empty 17 7 0 10 -262144 -1 -1 0
1;
#X obj 334 598 spigot;
#X obj 273 185 tgl 15 0 empty empty empty 17 7 0 10 -262144 -1 -1 0
1;
#X obj 384 598 spigot;
#X obj 294 185 tgl 15 0 empty empty empty 17 7 0 10 -262144 -1 -1 0
1;
#X obj 434 598 spigot;
#X obj 315 185 tgl 15 0 empty empty empty 17 7 0 10 -262144 -1 -1 0
1;
#X obj 484 598 spigot;
#X obj 336 185 tgl 15 0 empty empty empty 17 7 0 10 -262144 -1 -1 0
1;
#X obj 534 598 spigot;
#X obj 357 185 tgl 15 0 empty empty empty 17 7 0 10 -262144 -1 -1 0
1;
#X obj 584 598 spigot;
#X obj 379 185 tgl 15 0 empty empty empty 17 7 0 10 -262144 -1 -1 0
1;
#X obj 634 598 spigot;
#X obj 400 185 tgl 15 0 empty empty empty 17 7 0 10 -262144 -1 -1 0
1;
#X obj 684 598 spigot;
#X obj 421 185 tgl 15 0 empty empty empty 17 7 0 10 -262144 -1 -1 0
1;
#X obj 734 598 spigot;
#X obj 442 185 tgl 15 0 empty empty empty 17 7 0 10 -262144 -1 -1 0
1;
#X obj 784 598 spigot;
#X obj 463 185 tgl 15 0 empty empty empty 17 7 0 10 -262144 -1 -1 0
1;
#X obj 839 117 outlet;
#X obj 36 639 spigot;
#X obj 147 206 tgl 15 0 empty empty empty 17 7 0 10 -262144 -1 -1 0
1;
#X obj 86 639 spigot;
#X obj 168 206 tgl 15 0 empty empty empty 17 7 0 10 -262144 -1 -1 0
1;
#X obj 136 639 spigot;
#X obj 189 206 tgl 15 0 empty empty empty 17 7 0 10 -262144 -1 -1 0
1;
#X obj 186 639 spigot;
#X obj 210 206 tgl 15 0 empty empty empty 17 7 0 10 -262144 -1 -1 0
1;
#X obj 236 639 spigot;
#X obj 231 206 tgl 15 0 empty empty empty 17 7 0 10 -262144 -1 -1 0
1;
#X obj 286 639 spigot;
#X obj 252 206 tgl 15 0 empty empty empty 17 7 0 10 -262144 -1 -1 0
1;
#X obj 336 639 spigot;
#X obj 273 206 tgl 15 0 empty empty empty 17 7 0 10 -262144 -1 -1 0
1;
#X obj 386 639 spigot;
#X obj 294 206 tgl 15 0 empty empty empty 17 7 0 10 -262144 -1 -1 0
1;
#X obj 436 639 spigot;
#X obj 315 206 tgl 15 0 empty empty empty 17 7 0 10 -262144 -1 -1 0
1;
#X obj 486 639 spigot;
#X obj 336 206 tgl 15 0 empty empty empty 17 7 0 10 -262144 -1 -1 0
1;
#X obj 536 639 spigot;
#X obj 357 206 tgl 15 0 empty empty empty 17 7 0 10 -262144 -1 -1 0
1;
#X obj 586 639 spigot;
#X obj 379 206 tgl 15 0 empty empty empty 17 7 0 10 -262144 -1 -1 0
1;
#X obj 636 639 spigot;
#X obj 400 206 tgl 15 0 empty empty empty 17 7 0 10 -262144 -1 -1 0
1;
#X obj 686 639 spigot;
#X obj 421 206 tgl 15 0 empty empty empty 17 7 0 10 -262144 -1 -1 0
1;
#X obj 736 639 spigot;
#X obj 442 206 tgl 15 0 empty empty empty 17 7 0 10 -262144 -1 -1 0
1;
#X obj 786 639 spigot;
#X obj 463 206 tgl 15 0 empty empty empty 17 7 0 10 -262144 -1 -1 0
1;
#X obj 896 117 outlet;
#X obj 37 680 spigot;
#X obj 148 226 tgl 15 0 empty empty empty 17 7 0 10 -262144 -1 -1 0
1;
#X obj 87 680 spigot;
#X obj 169 226 tgl 15 0 empty empty empty 17 7 0 10 -262144 -1 -1 0
1;
#X obj 137 680 spigot;
#X obj 190 226 tgl 15 0 empty empty empty 17 7 0 10 -262144 -1 -1 0
1;
#X obj 187 680 spigot;
#X obj 211 226 tgl 15 0 empty empty empty 17 7 0 10 -262144 -1 -1 0
1;
#X obj 237 680 spigot;
#X obj 232 226 tgl 15 0 empty empty empty 17 7 0 10 -262144 -1 -1 0
1;
#X obj 287 680 spigot;
#X obj 253 226 tgl 15 0 empty empty empty 17 7 0 10 -262144 -1 -1 0
1;
#X obj 337 680 spigot;
#X obj 274 226 tgl 15 0 empty empty empty 17 7 0 10 -262144 -1 -1 0
1;
#X obj 387 680 spigot;
#X obj 295 226 tgl 15 0 empty empty empty 17 7 0 10 -262144 -1 -1 0
1;
#X obj 437 680 spigot;
#X obj 316 226 tgl 15 0 empty empty empty 17 7 0 10 -262144 -1 -1 0
1;
#X obj 487 680 spigot;
#X obj 337 226 tgl 15 0 empty empty empty 17 7 0 10 -262144 -1 -1 0
1;
#X obj 537 680 spigot;
#X obj 358 226 tgl 15 0 empty empty empty 17 7 0 10 -262144 -1 -1 0
1;
#X obj 587 680 spigot;
#X obj 380 226 tgl 15 0 empty empty empty 17 7 0 10 -262144 -1 -1 0
1;
#X obj 637 680 spigot;
#X obj 401 226 tgl 15 0 empty empty empty 17 7 0 10 -262144 -1 -1 0
1;
#X obj 687 680 spigot;
#X obj 422 226 tgl 15 0 empty empty empty 17 7 0 10 -262144 -1 -1 1
1;
#X obj 737 680 spigot;
#X obj 443 226 tgl 15 0 empty empty empty 17 7 0 10 -262144 -1 -1 0
1;
#X obj 787 680 spigot;
#X obj 464 226 tgl 15 0 empty empty empty 17 7 0 10 -262144 -1 -1 0
1;
#X obj 964 116 outlet;
#X obj 37 723 spigot;
#X obj 148 246 tgl 15 0 empty empty empty 17 7 0 10 -262144 -1 -1 0
1;
#X obj 87 723 spigot;
#X obj 169 246 tgl 15 0 empty empty empty 17 7 0 10 -262144 -1 -1 0
1;
#X obj 137 723 spigot;
#X obj 190 246 tgl 15 0 empty empty empty 17 7 0 10 -262144 -1 -1 0
1;
#X obj 187 723 spigot;
#X obj 211 246 tgl 15 0 empty empty empty 17 7 0 10 -262144 -1 -1 0
1;
#X obj 237 723 spigot;
#X obj 232 246 tgl 15 0 empty empty empty 17 7 0 10 -262144 -1 -1 0
1;
#X obj 287 723 spigot;
#X obj 253 246 tgl 15 0 empty empty empty 17 7 0 10 -262144 -1 -1 0
1;
#X obj 337 723 spigot;
#X obj 274 246 tgl 15 0 empty empty empty 17 7 0 10 -262144 -1 -1 0
1;
#X obj 387 723 spigot;
#X obj 295 246 tgl 15 0 empty empty empty 17 7 0 10 -262144 -1 -1 0
1;
#X obj 437 723 spigot;
#X obj 316 246 tgl 15 0 empty empty empty 17 7 0 10 -262144 -1 -1 0
1;
#X obj 487 723 spigot;
#X obj 337 246 tgl 15 0 empty empty empty 17 7 0 10 -262144 -1 -1 0
1;
#X obj 537 723 spigot;
#X obj 358 246 tgl 15 0 empty empty empty 17 7 0 10 -262144 -1 -1 0
1;
#X obj 587 723 spigot;
#X obj 380 246 tgl 15 0 empty empty empty 17 7 0 10 -262144 -1 -1 0
1;
#X obj 637 723 spigot;
#X obj 401 246 tgl 15 0 empty empty empty 17 7 0 10 -262144 -1 -1 0
1;
#X obj 687 723 spigot;
#X obj 422 246 tgl 15 0 empty empty empty 17 7 0 10 -262144 -1 -1 0
1;
#X obj 737 723 spigot;
#X obj 443 246 tgl 15 0 empty empty empty 17 7 0 10 -262144 -1 -1 0
1;
#X obj 787 723 spigot;
#X obj 464 246 tgl 15 0 empty empty empty 17 7 0 10 -262144 -1 -1 0
1;
#X obj 1031 116 outlet;
#X obj 37 761 spigot;
#X obj 149 266 tgl 15 0 empty empty empty 17 7 0 10 -262144 -1 -1 0
1;
#X obj 87 761 spigot;
#X obj 170 266 tgl 15 0 empty empty empty 17 7 0 10 -262144 -1 -1 0
1;
#X obj 137 761 spigot;
#X obj 191 266 tgl 15 0 empty empty empty 17 7 0 10 -262144 -1 -1 0
1;
#X obj 187 761 spigot;
#X obj 212 266 tgl 15 0 empty empty empty 17 7 0 10 -262144 -1 -1 0
1;
#X obj 237 761 spigot;
#X obj 233 266 tgl 15 0 empty empty empty 17 7 0 10 -262144 -1 -1 0
1;
#X obj 287 761 spigot;
#X obj 254 266 tgl 15 0 empty empty empty 17 7 0 10 -262144 -1 -1 0
1;
#X obj 337 761 spigot;
#X obj 275 266 tgl 15 0 empty empty empty 17 7 0 10 -262144 -1 -1 1
1;
#X obj 387 761 spigot;
#X obj 296 266 tgl 15 0 empty empty empty 17 7 0 10 -262144 -1 -1 0
1;
#X obj 437 761 spigot;
#X obj 317 266 tgl 15 0 empty empty empty 17 7 0 10 -262144 -1 -1 1
1;
#X obj 487 761 spigot;
#X obj 338 266 tgl 15 0 empty empty empty 17 7 0 10 -262144 -1 -1 0
1;
#X obj 537 761 spigot;
#X obj 359 266 tgl 15 0 empty empty empty 17 7 0 10 -262144 -1 -1 1
1;
#X obj 587 761 spigot;
#X obj 381 266 tgl 15 0 empty empty empty 17 7 0 10 -262144 -1 -1 1
1;
#X obj 637 761 spigot;
#X obj 402 266 tgl 15 0 empty empty empty 17 7 0 10 -262144 -1 -1 1
1;
#X obj 687 761 spigot;
#X obj 423 266 tgl 15 0 empty empty empty 17 7 0 10 -262144 -1 -1 1
1;
#X obj 737 761 spigot;
#X obj 444 266 tgl 15 0 empty empty empty 17 7 0 10 -262144 -1 -1 1
1;
#X obj 787 761 spigot;
#X obj 465 266 tgl 15 0 empty empty empty 17 7 0 10 -262144 -1 -1 1
1;
#X msg 1142 719;
#X obj 106 162 vsl 15 70 0 127 0 0 empty empty empty 0 -9 0 10 -262144
-1 -1 4400 0;
#X obj 485 123 cnv 15 15 15 empty empty empty 20 12 0 14 -258113 -66577
0;
#X obj 179 284 cnv 15 15 15 empty empty empty 20 12 0 14 -258113 -66577
0;
#X obj 485 144 cnv 15 15 15 empty empty empty 20 12 0 14 -260097 -66577
0;
#X obj 222 284 cnv 15 15 15 empty empty empty 20 12 0 14 -260097 -66577
0;
#X obj 485 165 cnv 15 15 15 empty empty empty 20 12 0 14 -257985 -66577
0;
#X obj 267 284 cnv 15 15 15 empty empty empty 20 12 0 14 -257985 -66577
0;
#X obj 485 186 cnv 15 15 15 empty empty empty 20 12 0 14 -4034 -66577
0;
#X obj 313 284 cnv 15 15 15 empty empty empty 20 12 0 14 -4034 -66577
0;
#X obj 485 207 cnv 15 15 15 empty empty empty 20 12 0 14 -4032 -66577
0;
#X obj 356 284 cnv 15 15 15 empty empty empty 20 12 0 14 -4032 -66577
0;
#X obj 485 227 cnv 15 15 15 empty empty empty 20 12 0 14 -4160 -66577
0;
#X obj 398 284 cnv 15 15 15 empty empty empty 20 12 0 14 -4160 -66577
0;
#X obj 485 247 cnv 15 15 15 empty empty empty 20 12 0 14 -159808 -66577
0;
#X obj 441 284 cnv 15 15 15 empty empty empty 20 12 0 14 -159808 -66577
0;
#X obj 485 267 cnv 15 15 15 empty empty empty 20 12 0 14 -258112 -66577
0;
#X obj 484 284 cnv 15 15 15 empty empty empty 20 12 0 14 -258112 -66577
0;
#X obj 213 -394 / 100;
#X connect 0 0 1 0;
#X connect 1 0 6 0;
#X connect 1 0 15 0;
#X connect 2 0 3 0;
#X connect 3 0 0 0;
#X connect 3 0 4 0;
#X connect 3 0 19 0;
#X connect 3 0 54 0;
#X connect 3 0 61 0;
#X connect 3 0 145 0;
#X connect 3 0 146 0;
#X connect 3 0 147 0;
#X connect 3 0 148 0;
#X connect 3 0 149 0;
#X connect 3 0 150 0;
#X connect 3 0 151 0;
#X connect 3 0 152 0;
#X connect 3 0 153 0;
#X connect 3 0 154 0;
#X connect 3 0 155 0;
#X connect 3 0 156 0;
#X connect 3 0 157 0;
#X connect 4 0 12 0;
#X connect 5 0 20 0;
#X connect 6 0 8 0;
#X connect 6 0 16 0;
#X connect 7 0 21 0;
#X connect 8 0 10 0;
#X connect 8 0 17 0;
#X connect 9 0 22 0;
#X connect 10 0 18 0;
#X connect 10 0 24 0;
#X connect 11 0 23 0;
#X connect 12 0 13 0;
#X connect 13 0 14 0;
#X connect 14 0 26 0;
#X connect 15 0 70 0;
#X connect 15 0 113 0;
#X connect 15 0 159 0;
#X connect 15 0 192 0;
#X connect 15 0 225 0;
#X connect 15 0 258 0;
#X connect 15 0 291 0;
#X connect 15 0 324 0;
#X connect 15 0 357 0;
#X connect 16 0 70 0;
#X connect 16 0 115 0;
#X connect 16 0 161 0;
#X connect 16 0 194 0;
#X connect 16 0 227 0;
#X connect 16 0 260 0;
#X connect 16 0 293 0;
#X connect 16 0 326 0;
#X connect 16 0 359 0;
#X connect 17 0 70 0;
#X connect 17 0 117 0;
#X connect 17 0 163 0;
#X connect 17 0 196 0;
#X connect 17 0 229 0;
#X connect 17 0 262 0;
#X connect 17 0 264 0;
#X connect 17 0 295 0;
#X connect 17 0 328 0;
#X connect 17 0 361 0;
#X connect 18 0 70 0;
#X connect 18 0 119 0;
#X connect 18 0 165 0;
#X connect 18 0 198 0;
#X connect 18 0 231 0;
#X connect 18 0 266 0;
#X connect 18 0 297 0;
#X connect 18 0 330 0;
#X connect 18 0 363 0;
#X connect 19 0 96 0;
#X connect 20 0 1 1;
#X connect 20 0 12 0;
#X connect 21 0 6 1;
#X connect 21 0 12 1;
#X connect 22 0 8 1;
#X connect 22 0 13 1;
#X connect 23 0 10 1;
#X connect 23 0 14 1;
#X connect 24 0 40 0;
#X connect 24 0 28 0;
#X connect 25 0 27 0;
#X connect 26 0 30 0;
#X connect 27 0 24 1;
#X connect 27 0 26 1;
#X connect 28 0 41 0;
#X connect 28 0 32 0;
#X connect 29 0 31 0;
#X connect 30 0 34 0;
#X connect 31 0 28 1;
#X connect 31 0 30 1;
#X connect 32 0 42 0;
#X connect 32 0 36 0;
#X connect 33 0 35 0;
#X connect 34 0 38 0;
#X connect 35 0 32 1;
#X connect 35 0 34 1;
#X connect 36 0 43 0;
#X connect 36 0 44 0;
#X connect 37 0 39 0;
#X connect 38 0 46 0;
#X connect 39 0 36 1;
#X connect 39 0 38 1;
#X connect 40 0 70 0;
#X connect 40 0 121 0;
#X connect 40 0 167 0;
#X connect 40 0 200 0;
#X connect 40 0 233 0;
#X connect 40 0 268 0;
#X connect 40 0 299 0;
#X connect 40 0 332 0;
#X connect 40 0 365 0;
#X connect 41 0 70 0;
#X connect 41 0 123 0;
#X connect 41 0 169 0;
#X connect 41 0 202 0;
#X connect 41 0 235 0;
#X connect 41 0 270 0;
#X connect 41 0 301 0;
#X connect 41 0 334 0;
#X connect 41 0 367 0;
#X connect 42 0 70 0;
#X connect 42 0 125 0;
#X connect 42 0 171 0;
#X connect 42 0 204 0;
#X connect 42 0 237 0;
#X connect 42 0 272 0;
#X connect 42 0 303 0;
#X connect 42 0 336 0;
#X connect 42 0 369 0;
#X connect 43 0 70 0;
#X connect 43 0 127 0;
#X connect 43 0 173 0;
#X connect 43 0 206 0;
#X connect 43 0 239 0;
#X connect 43 0 274 0;
#X connect 43 0 305 0;
#X connect 43 0 338 0;
#X connect 43 0 371 0;
#X connect 44 0 57 0;
#X connect 44 0 48 0;
#X connect 45 0 47 0;
#X connect 46 0 50 0;
#X connect 47 0 44 1;
#X connect 47 0 46 1;
#X connect 48 0 58 0;
#X connect 48 0 75 0;
#X connect 49 0 51 0;
#X connect 50 0 76 0;
#X connect 51 0 48 1;
#X connect 51 0 50 1;
#X connect 52 0 62 0;
#X connect 52 0 81 0;
#X connect 53 0 77 0;
#X connect 54 0 55 0;
#X connect 55 0 63 0;
#X connect 56 0 52 1;
#X connect 56 0 55 1;
#X connect 57 0 70 0;
#X connect 57 0 129 0;
#X connect 57 0 175 0;
#X connect 57 0 208 0;
#X connect 57 0 241 0;
#X connect 57 0 276 0;
#X connect 57 0 307 0;
#X connect 57 0 340 0;
#X connect 57 0 373 0;
#X connect 58 0 70 0;
#X connect 58 0 131 0;
#X connect 58 0 177 0;
#X connect 58 0 210 0;
#X connect 58 0 243 0;
#X connect 58 0 309 0;
#X connect 58 0 342 0;
#X connect 58 0 375 0;
#X connect 59 0 70 0;
#X connect 59 0 133 0;
#X connect 59 0 179 0;
#X connect 59 0 212 0;
#X connect 59 0 245 0;
#X connect 59 0 278 0;
#X connect 59 0 311 0;
#X connect 59 0 344 0;
#X connect 59 0 377 0;
#X connect 60 0 70 0;
#X connect 60 0 143 0;
#X connect 60 0 189 0;
#X connect 60 0 222 0;
#X connect 60 0 255 0;
#X connect 60 0 288 0;
#X connect 60 0 321 0;
#X connect 60 0 354 0;
#X connect 60 0 387 0;
#X connect 61 0 63 0;
#X connect 61 0 60 0;
#X connect 63 0 65 0;
#X connect 64 0 62 1;
#X connect 64 0 63 1;
#X connect 65 0 96 0;
#X connect 66 0 21 0;
#X connect 69 0 407 0;
#X connect 71 0 2 0;
#X connect 75 0 78 0;
#X connect 75 0 59 0;
#X connect 76 0 79 0;
#X connect 77 0 75 1;
#X connect 77 0 76 1;
#X connect 78 0 86 0;
#X connect 78 0 84 0;
#X connect 79 0 87 0;
#X connect 80 0 78 1;
#X connect 80 0 79 1;
#X connect 81 0 70 0;
#X connect 81 0 141 0;
#X connect 81 0 187 0;
#X connect 81 0 220 0;
#X connect 81 0 253 0;
#X connect 81 0 286 0;
#X connect 81 0 352 0;
#X connect 81 0 385 0;
#X connect 82 0 70 0;
#X connect 82 0 139 0;
#X connect 82 0 185 0;
#X connect 82 0 218 0;
#X connect 82 0 251 0;
#X connect 82 0 284 0;
#X connect 82 0 317 0;
#X connect 82 0 319 0;
#X connect 82 0 350 0;
#X connect 82 0 383 0;
#X connect 83 0 70 0;
#X connect 83 0 137 0;
#X connect 83 0 183 0;
#X connect 83 0 216 0;
#X connect 83 0 249 0;
#X connect 83 0 282 0;
#X connect 83 0 315 0;
#X connect 83 0 348 0;
#X connect 83 0 381 0;
#X connect 84 0 70 0;
#X connect 84 0 135 0;
#X connect 84 0 181 0;
#X connect 84 0 214 0;
#X connect 84 0 247 0;
#X connect 84 0 280 0;
#X connect 84 0 313 0;
#X connect 84 0 346 0;
#X connect 84 0 379 0;
#X connect 85 0 80 0;
#X connect 86 0 89 0;
#X connect 86 0 83 0;
#X connect 87 0 90 0;
#X connect 88 0 86 1;
#X connect 88 0 87 1;
#X connect 89 0 52 0;
#X connect 89 0 82 0;
#X connect 90 0 55 0;
#X connect 91 0 89 1;
#X connect 91 0 90 1;
#X connect 92 0 88 0;
#X connect 93 0 91 0;
#X connect 94 0 56 0;
#X connect 95 0 64 0;
#X connect 96 0 3 1;
#X connect 96 0 68 0;
#X connect 97 0 25 0;
#X connect 97 0 33 0;
#X connect 97 0 45 0;
#X connect 97 0 53 0;
#X connect 97 0 92 0;
#X connect 97 0 94 0;
#X connect 97 0 9 0;
#X connect 97 0 5 0;
#X connect 98 0 7 0;
#X connect 98 0 11 0;
#X connect 98 0 29 0;
#X connect 98 0 37 0;
#X connect 98 0 49 0;
#X connect 98 0 85 0;
#X connect 98 0 93 0;
#X connect 98 0 95 0;
#X connect 99 0 103 0;
#X connect 100 0 102 0;
#X connect 101 0 100 0;
#X connect 101 1 102 1;
#X connect 102 0 97 0;
#X connect 103 0 104 0;
#X connect 103 0 109 0;
#X connect 104 0 105 0;
#X connect 105 0 101 0;
#X connect 106 0 108 0;
#X connect 107 0 106 0;
#X connect 107 1 108 1;
#X connect 108 0 98 0;
#X connect 109 0 107 0;
#X connect 110 0 111 0;
#X connect 111 0 5 0;
#X connect 111 1 7 0;
#X connect 111 2 9 0;
#X connect 111 3 11 0;
#X connect 111 4 25 0;
#X connect 111 5 29 0;
#X connect 111 6 33 0;
#X connect 111 7 37 0;
#X connect 111 8 45 0;
#X connect 111 9 49 0;
#X connect 111 10 53 0;
#X connect 111 11 85 0;
#X connect 111 12 92 0;
#X connect 111 13 93 0;
#X connect 111 14 94 0;
#X connect 111 15 95 0;
#X connect 113 0 112 0;
#X connect 114 0 113 1;
#X connect 115 0 112 0;
#X connect 116 0 115 1;
#X connect 117 0 112 0;
#X connect 118 0 117 1;
#X connect 119 0 112 0;
#X connect 120 0 119 1;
#X connect 121 0 112 0;
#X connect 122 0 121 1;
#X connect 123 0 112 0;
#X connect 124 0 123 1;
#X connect 125 0 112 0;
#X connect 126 0 125 1;
#X connect 127 0 112 0;
#X connect 128 0 127 1;
#X connect 129 0 112 0;
#X connect 130 0 129 1;
#X connect 131 0 112 0;
#X connect 132 0 131 1;
#X connect 133 0 112 0;
#X connect 134 0 133 1;
#X connect 135 0 112 0;
#X connect 136 0 135 1;
#X connect 137 0 112 0;
#X connect 138 0 137 1;
#X connect 139 0 112 0;
#X connect 140 0 139 1;
#X connect 141 0 112 0;
#X connect 142 0 141 1;
#X connect 143 0 112 0;
#X connect 144 0 143 1;
#X connect 145 0 13 0;
#X connect 146 0 14 0;
#X connect 147 0 90 0;
#X connect 148 0 26 0;
#X connect 149 0 30 0;
#X connect 150 0 34 0;
#X connect 151 0 38 0;
#X connect 152 0 38 0;
#X connect 153 0 46 0;
#X connect 154 0 50 0;
#X connect 155 0 76 0;
#X connect 156 0 79 0;
#X connect 157 0 87 0;
#X connect 159 0 158 0;
#X connect 160 0 159 1;
#X connect 161 0 158 0;
#X connect 162 0 161 1;
#X connect 163 0 158 0;
#X connect 164 0 163 1;
#X connect 165 0 158 0;
#X connect 166 0 165 1;
#X connect 167 0 158 0;
#X connect 168 0 167 1;
#X connect 169 0 158 0;
#X connect 170 0 169 1;
#X connect 171 0 158 0;
#X connect 172 0 171 1;
#X connect 173 0 158 0;
#X connect 174 0 173 1;
#X connect 175 0 158 0;
#X connect 176 0 175 1;
#X connect 177 0 158 0;
#X connect 178 0 177 1;
#X connect 179 0 158 0;
#X connect 180 0 179 1;
#X connect 181 0 158 0;
#X connect 182 0 181 1;
#X connect 183 0 158 0;
#X connect 184 0 183 1;
#X connect 185 0 158 0;
#X connect 186 0 185 1;
#X connect 187 0 158 0;
#X connect 188 0 187 1;
#X connect 189 0 158 0;
#X connect 190 0 189 1;
#X connect 192 0 191 0;
#X connect 193 0 192 1;
#X connect 194 0 191 0;
#X connect 195 0 194 1;
#X connect 196 0 191 0;
#X connect 197 0 196 1;
#X connect 198 0 191 0;
#X connect 199 0 198 1;
#X connect 200 0 191 0;
#X connect 201 0 200 1;
#X connect 202 0 191 0;
#X connect 203 0 202 1;
#X connect 204 0 191 0;
#X connect 205 0 204 1;
#X connect 206 0 191 0;
#X connect 207 0 206 1;
#X connect 208 0 191 0;
#X connect 209 0 208 1;
#X connect 210 0 191 0;
#X connect 211 0 210 1;
#X connect 212 0 191 0;
#X connect 213 0 212 1;
#X connect 214 0 191 0;
#X connect 215 0 214 1;
#X connect 216 0 191 0;
#X connect 217 0 216 1;
#X connect 218 0 191 0;
#X connect 219 0 218 1;
#X connect 220 0 191 0;
#X connect 221 0 220 1;
#X connect 222 0 191 0;
#X connect 223 0 222 1;
#X connect 225 0 224 0;
#X connect 226 0 225 1;
#X connect 227 0 224 0;
#X connect 228 0 227 1;
#X connect 229 0 224 0;
#X connect 230 0 229 1;
#X connect 231 0 224 0;
#X connect 232 0 231 1;
#X connect 233 0 224 0;
#X connect 234 0 233 1;
#X connect 235 0 224 0;
#X connect 236 0 235 1;
#X connect 237 0 224 0;
#X connect 238 0 237 1;
#X connect 239 0 224 0;
#X connect 240 0 239 1;
#X connect 241 0 224 0;
#X connect 242 0 241 1;
#X connect 243 0 224 0;
#X connect 244 0 243 1;
#X connect 245 0 224 0;
#X connect 246 0 245 1;
#X connect 247 0 224 0;
#X connect 248 0 247 1;
#X connect 249 0 224 0;
#X connect 250 0 249 1;
#X connect 251 0 224 0;
#X connect 252 0 251 1;
#X connect 253 0 224 0;
#X connect 254 0 253 1;
#X connect 255 0 224 0;
#X connect 256 0 255 1;
#X connect 258 0 257 0;
#X connect 259 0 258 1;
#X connect 260 0 257 0;
#X connect 261 0 260 1;
#X connect 262 0 257 0;
#X connect 263 0 262 1;
#X connect 264 0 257 0;
#X connect 265 0 264 1;
#X connect 266 0 257 0;
#X connect 267 0 266 1;
#X connect 268 0 257 0;
#X connect 269 0 268 1;
#X connect 270 0 257 0;
#X connect 271 0 270 1;
#X connect 272 0 257 0;
#X connect 273 0 272 1;
#X connect 274 0 257 0;
#X connect 275 0 274 1;
#X connect 276 0 257 0;
#X connect 277 0 276 1;
#X connect 278 0 257 0;
#X connect 279 0 278 1;
#X connect 280 0 257 0;
#X connect 281 0 280 1;
#X connect 282 0 257 0;
#X connect 283 0 282 1;
#X connect 284 0 257 0;
#X connect 285 0 284 1;
#X connect 286 0 257 0;
#X connect 287 0 286 1;
#X connect 288 0 257 0;
#X connect 289 0 288 1;
#X connect 291 0 290 0;
#X connect 292 0 291 1;
#X connect 293 0 290 0;
#X connect 294 0 293 1;
#X connect 295 0 290 0;
#X connect 296 0 295 1;
#X connect 297 0 290 0;
#X connect 298 0 297 1;
#X connect 299 0 290 0;
#X connect 300 0 299 1;
#X connect 301 0 290 0;
#X connect 302 0 301 1;
#X connect 303 0 290 0;
#X connect 304 0 303 1;
#X connect 305 0 290 0;
#X connect 306 0 305 1;
#X connect 307 0 290 0;
#X connect 308 0 307 1;
#X connect 309 0 290 0;
#X connect 310 0 309 1;
#X connect 311 0 290 0;
#X connect 312 0 311 1;
#X connect 313 0 290 0;
#X connect 314 0 313 1;
#X connect 315 0 290 0;
#X connect 316 0 315 1;
#X connect 317 0 290 0;
#X connect 318 0 317 1;
#X connect 319 0 290 0;
#X connect 320 0 319 1;
#X connect 321 0 290 0;
#X connect 322 0 321 1;
#X connect 324 0 323 0;
#X connect 325 0 324 1;
#X connect 326 0 323 0;
#X connect 327 0 326 1;
#X connect 328 0 323 0;
#X connect 329 0 328 1;
#X connect 330 0 323 0;
#X connect 331 0 330 1;
#X connect 332 0 323 0;
#X connect 333 0 332 1;
#X connect 334 0 323 0;
#X connect 335 0 334 1;
#X connect 336 0 323 0;
#X connect 337 0 336 1;
#X connect 338 0 323 0;
#X connect 339 0 338 1;
#X connect 340 0 323 0;
#X connect 341 0 340 1;
#X connect 342 0 323 0;
#X connect 343 0 342 1;
#X connect 344 0 323 0;
#X connect 345 0 344 1;
#X connect 346 0 323 0;
#X connect 347 0 346 1;
#X connect 348 0 323 0;
#X connect 349 0 348 1;
#X connect 350 0 323 0;
#X connect 351 0 350 1;
#X connect 352 0 323 0;
#X connect 353 0 352 1;
#X connect 354 0 323 0;
#X connect 355 0 354 1;
#X connect 357 0 356 0;
#X connect 358 0 357 1;
#X connect 359 0 356 0;
#X connect 360 0 359 1;
#X connect 361 0 356 0;
#X connect 362 0 361 1;
#X connect 363 0 356 0;
#X connect 364 0 363 1;
#X connect 365 0 356 0;
#X connect 366 0 365 1;
#X connect 367 0 356 0;
#X connect 368 0 367 1;
#X connect 369 0 356 0;
#X connect 370 0 369 1;
#X connect 371 0 356 0;
#X connect 372 0 371 1;
#X connect 373 0 356 0;
#X connect 374 0 373 1;
#X connect 375 0 356 0;
#X connect 376 0 375 1;
#X connect 377 0 356 0;
#X connect 378 0 377 1;
#X connect 379 0 356 0;
#X connect 380 0 379 1;
#X connect 381 0 356 0;
#X connect 382 0 381 1;
#X connect 383 0 356 0;
#X connect 384 0 383 1;
#X connect 385 0 356 0;
#X connect 386 0 385 1;
#X connect 387 0 356 0;
#X connect 388 0 387 1;
#X connect 390 0 103 0;
#X connect 407 0 106 0;
#X connect 407 0 100 0;
#X connect 407 0 66 0;
#X coords 0 -1 1 1 400 200 2 100 100;
